{
    "patcher": {
        "fileversion": 1,
        "appversion": {
            "major": 9,
            "minor": 1,
            "revision": 1,
            "architecture": "x64",
            "modernui": 1
        },
        "classnamespace": "box",
        "rect": [ 170.0, 135.0, 1000.0, 730.0 ],
        "subpatcher_template": "hook-template",
        "boxes": [
            {
                "box": {
                    "id": "obj-2",
                    "maxclass": "newobj",
                    "numinlets": 1,
                    "numoutlets": 1,
                    "outlettype": [ "bang" ],
                    "patching_rect": [ 158.0, 109.5, 58.0, 22.0 ],
                    "text": "loadbang"
                }
            },
            {
                "box": {
                    "id": "obj-1",
                    "maxclass": "newobj",
                    "numinlets": 1,
                    "numoutlets": 3,
                    "outlettype": [ "int", "int", "int" ],
                    "patching_rect": [ 158.0, 146.5, 56.0, 22.0 ],
                    "text": "thispoly~"
                }
            },
            {
                "box": {
                    "id": "obj-52",
                    "maxclass": "newobj",
                    "numinlets": 2,
                    "numoutlets": 1,
                    "outlettype": [ "" ],
                    "patcher": {
                        "fileversion": 1,
                        "appversion": {
                            "major": 9,
                            "minor": 1,
                            "revision": 1,
                            "architecture": "x64",
                            "modernui": 1
                        },
                        "classnamespace": "box",
                        "rect": [ 84.0, 132.0, 640.0, 480.0 ],
                        "boxes": [
                            {
                                "box": {
                                    "id": "obj-139",
                                    "maxclass": "newobj",
                                    "numinlets": 1,
                                    "numoutlets": 1,
                                    "outlettype": [ "bang" ],
                                    "patching_rect": [ 133.0, 100.0, 58.0, 22.0 ],
                                    "text": "loadbang"
                                }
                            },
                            {
                                "box": {
                                    "id": "obj-141",
                                    "maxclass": "message",
                                    "numinlets": 2,
                                    "numoutlets": 1,
                                    "outlettype": [ "" ],
                                    "patching_rect": [ 89.0, 143.0, 29.5, 22.0 ],
                                    "text": "0"
                                }
                            },
                            {
                                "box": {
                                    "id": "obj-142",
                                    "maxclass": "message",
                                    "numinlets": 2,
                                    "numoutlets": 1,
                                    "outlettype": [ "" ],
                                    "patching_rect": [ 50.0, 143.0, 29.5, 22.0 ],
                                    "text": "1"
                                }
                            },
                            {
                                "box": {
                                    "fontname": "Arial",
                                    "fontsize": 13.0,
                                    "id": "obj-144",
                                    "maxclass": "message",
                                    "numinlets": 2,
                                    "numoutlets": 1,
                                    "outlettype": [ "" ],
                                    "patching_rect": [ 50.0, 176.23945603512198, 76.0, 23.0 ],
                                    "text": "enable $1 1"
                                }
                            },
                            {
                                "box": {
                                    "comment": "",
                                    "id": "obj-38",
                                    "index": 1,
                                    "maxclass": "inlet",
                                    "numinlets": 0,
                                    "numoutlets": 1,
                                    "outlettype": [ "bang" ],
                                    "patching_rect": [ 50.000003985698754, 39.99998228671268, 30.0, 30.0 ]
                                }
                            },
                            {
                                "box": {
                                    "comment": "",
                                    "id": "obj-43",
                                    "index": 2,
                                    "maxclass": "inlet",
                                    "numinlets": 0,
                                    "numoutlets": 1,
                                    "outlettype": [ "bang" ],
                                    "patching_rect": [ 89.00000398569875, 39.99998228671268, 30.0, 30.0 ]
                                }
                            },
                            {
                                "box": {
                                    "comment": "",
                                    "id": "obj-51",
                                    "index": 1,
                                    "maxclass": "outlet",
                                    "numinlets": 1,
                                    "numoutlets": 0,
                                    "patching_rect": [ 50.000003985698754, 259.2394842867127, 30.0, 30.0 ]
                                }
                            }
                        ],
                        "lines": [
                            {
                                "patchline": {
                                    "destination": [ "obj-141", 0 ],
                                    "midpoints": [ 142.5, 132.0, 98.5, 132.0 ],
                                    "source": [ "obj-139", 0 ]
                                }
                            },
                            {
                                "patchline": {
                                    "destination": [ "obj-144", 0 ],
                                    "midpoints": [ 98.5, 170.119728017561, 59.5, 170.119728017561 ],
                                    "source": [ "obj-141", 0 ]
                                }
                            },
                            {
                                "patchline": {
                                    "destination": [ "obj-144", 0 ],
                                    "source": [ "obj-142", 0 ]
                                }
                            },
                            {
                                "patchline": {
                                    "destination": [ "obj-51", 0 ],
                                    "source": [ "obj-144", 0 ]
                                }
                            },
                            {
                                "patchline": {
                                    "destination": [ "obj-142", 0 ],
                                    "source": [ "obj-38", 0 ]
                                }
                            },
                            {
                                "patchline": {
                                    "destination": [ "obj-141", 0 ],
                                    "source": [ "obj-43", 0 ]
                                }
                            }
                        ]
                    },
                    "patching_rect": [ 54.0, 116.0, 49.0, 22.0 ],
                    "text": "p muter"
                }
            },
            {
                "box": {
                    "id": "obj-37",
                    "maxclass": "comment",
                    "numinlets": 1,
                    "numoutlets": 0,
                    "patching_rect": [ 122.0, 181.0, 167.09401726722717, 20.0 ],
                    "text": "Give this subpatcher a name"
                }
            },
            {
                "box": {
                    "id": "obj-138",
                    "maxclass": "newobj",
                    "numinlets": 2,
                    "numoutlets": 2,
                    "outlettype": [ "bang", "bang" ],
                    "patcher": {
                        "fileversion": 1,
                        "appversion": {
                            "major": 9,
                            "minor": 1,
                            "revision": 1,
                            "architecture": "x64",
                            "modernui": 1
                        },
                        "classnamespace": "box",
                        "rect": [ 34.0, 77.0, 1639.0, 802.0 ],
                        "globalpatchername": "u030044577",
                        "boxes": [
                            {
                                "box": {
                                    "id": "obj-17",
                                    "linecount": 3,
                                    "maxclass": "comment",
                                    "numinlets": 1,
                                    "numoutlets": 0,
                                    "patching_rect": [ 533.0, 502.0, 127.0, 48.0 ],
                                    "presentation_linecount": 3,
                                    "text": "Hooks Pattr\nHou Lam Wu (Eagle)\n2023-2026",
                                    "textjustification": 2
                                }
                            },
                            {
                                "box": {
                                    "id": "obj-92",
                                    "maxclass": "newobj",
                                    "numinlets": 3,
                                    "numoutlets": 5,
                                    "outlettype": [ "", "", "", "", "" ],
                                    "patching_rect": [ 313.0, 540.0, 187.95145446062088, 22.0 ],
                                    "text": "hooks.functions #1"
                                }
                            },
                            {
                                "box": {
                                    "id": "obj-22",
                                    "linecount": 3,
                                    "maxclass": "comment",
                                    "numinlets": 1,
                                    "numoutlets": 0,
                                    "patching_rect": [ 431.0, 589.0, 229.1262104511261, 48.0 ],
                                    "presentation_linecount": 3,
                                    "text": "Connects Pattr and Line Objects with preformatted receive objects and allow faster access with Hook-Helper",
                                    "textjustification": 2
                                }
                            },
                            {
                                "box": {
                                    "id": "obj-35",
                                    "maxclass": "newobj",
                                    "numinlets": 1,
                                    "numoutlets": 2,
                                    "outlettype": [ "", "" ],
                                    "patching_rect": [ 323.0, 565.0, 67.0, 22.0 ],
                                    "save": [ "#N", "thispatcher", ";", "#Q", "end", ";" ],
                                    "text": "thispatcher"
                                }
                            },
                            {
                                "box": {
                                    "id": "obj-101",
                                    "maxclass": "newobj",
                                    "numinlets": 2,
                                    "numoutlets": 2,
                                    "outlettype": [ "", "" ],
                                    "patching_rect": [ 313.0, 615.0, 77.0, 22.0 ],
                                    "text": "hooks.loader"
                                }
                            },
                            {
                                "box": {
                                    "id": "obj-25",
                                    "maxclass": "newobj",
                                    "numinlets": 1,
                                    "numoutlets": 2,
                                    "outlettype": [ "", "" ],
                                    "patching_rect": [ 448.0, 510.0, 53.0, 22.0 ],
                                    "text": "pattrhub"
                                }
                            },
                            {
                                "box": {
                                    "id": "obj-43",
                                    "maxclass": "newobj",
                                    "numinlets": 1,
                                    "numoutlets": 1,
                                    "outlettype": [ "" ],
                                    "patching_rect": [ 394.0, 615.0, 70.0, 22.0 ],
                                    "text": "pattrmarker"
                                }
                            },
                            {
                                "box": {
                                    "id": "obj-64",
                                    "maxclass": "newobj",
                                    "numinlets": 1,
                                    "numoutlets": 1,
                                    "outlettype": [ "" ],
                                    "patching_rect": [ 313.0, 592.0, 135.0, 22.0 ],
                                    "saved_object_attributes": {
                                        "client_rect": [ 100, 134, 454, 262 ],
                                        "parameter_enable": 0,
                                        "parameter_mappable": 0,
                                        "storage_rect": [ 583, 69, 1034, 197 ]
                                    },
                                    "text": "pattrstorage @greedy 2",
                                    "varname": "#1-sub"
                                }
                            },
                            {
                                "box": {
                                    "attr": "name",
                                    "id": "obj-69",
                                    "maxclass": "attrui",
                                    "numinlets": 1,
                                    "numoutlets": 1,
                                    "outlettype": [ "" ],
                                    "parameter_enable": 0,
                                    "patching_rect": [ 394.0, 565.0, 266.3004574775696, 22.0 ]
                                }
                            },
                            {
                                "box": {
                                    "angle": 270.0,
                                    "bgcolor": [ 1.0, 1.0, 1.0, 0.47 ],
                                    "id": "obj-28",
                                    "maxclass": "panel",
                                    "mode": 0,
                                    "numinlets": 1,
                                    "numoutlets": 0,
                                    "patching_rect": [ 306.0, 499.0, 359.223296046257, 143.2038815319538 ],
                                    "proportion": 0.5
                                }
                            },
                            {
                                "box": {
                                    "id": "obj-21",
                                    "maxclass": "newobj",
                                    "numinlets": 1,
                                    "numoutlets": 1,
                                    "outlettype": [ "" ],
                                    "patching_rect": [ 313.0, 385.0, 54.0, 22.0 ],
                                    "text": "deferlow"
                                }
                            },
                            {
                                "box": {
                                    "id": "obj-18",
                                    "maxclass": "newobj",
                                    "numinlets": 2,
                                    "numoutlets": 1,
                                    "outlettype": [ "" ],
                                    "patching_rect": [ 313.0, 454.0, 75.0, 22.0 ],
                                    "text": "sprintf %s%i"
                                }
                            },
                            {
                                "box": {
                                    "comment": "",
                                    "id": "obj-19",
                                    "index": 2,
                                    "maxclass": "inlet",
                                    "numinlets": 0,
                                    "numoutlets": 1,
                                    "outlettype": [ "int" ],
                                    "patching_rect": [ 369.0, 40.0, 30.0, 30.0 ]
                                }
                            },
                            {
                                "box": {
                                    "id": "obj-20",
                                    "maxclass": "newobj",
                                    "numinlets": 0,
                                    "numoutlets": 1,
                                    "outlettype": [ "" ],
                                    "patching_rect": [ 313.0, 326.0, 43.0, 22.0 ],
                                    "text": "r reset"
                                }
                            },
                            {
                                "box": {
                                    "id": "obj-23",
                                    "maxclass": "newobj",
                                    "numinlets": 1,
                                    "numoutlets": 2,
                                    "outlettype": [ "", "" ],
                                    "patching_rect": [ 313.0, 356.0, 72.0, 22.0 ],
                                    "text": "patcherargs"
                                }
                            },
                            {
                                "box": {
                                    "id": "obj-8",
                                    "maxclass": "newobj",
                                    "numinlets": 1,
                                    "numoutlets": 1,
                                    "outlettype": [ "" ],
                                    "patching_rect": [ 165.0, 508.0, 74.0, 22.0 ],
                                    "text": "rm reset yyy"
                                }
                            },
                            {
                                "box": {
                                    "id": "obj-10",
                                    "maxclass": "newobj",
                                    "numinlets": 1,
                                    "numoutlets": 1,
                                    "outlettype": [ "" ],
                                    "patching_rect": [ 50.0, 251.0, 74.0, 22.0 ],
                                    "text": "rm reset xxx"
                                }
                            },
                            {
                                "box": {
                                    "id": "obj-11",
                                    "maxclass": "newobj",
                                    "numinlets": 1,
                                    "numoutlets": 3,
                                    "outlettype": [ "", "", "" ],
                                    "patching_rect": [ 165.0, 540.0, 106.0, 22.0 ],
                                    "saved_object_attributes": {
                                        "initial": [ "yyy" ],
                                        "parameter_enable": 0,
                                        "parameter_mappable": 0
                                    },
                                    "text": "pattr s @initial yyy",
                                    "varname": "s"
                                }
                            },
                            {
                                "box": {
                                    "id": "obj-12",
                                    "maxclass": "newobj",
                                    "numinlets": 1,
                                    "numoutlets": 3,
                                    "outlettype": [ "", "", "" ],
                                    "patching_rect": [ 50.0, 290.0, 104.0, 22.0 ],
                                    "saved_object_attributes": {
                                        "initial": [ "xxx" ],
                                        "parameter_enable": 0,
                                        "parameter_mappable": 0
                                    },
                                    "text": "pattr r @initial xxx",
                                    "varname": "r"
                                }
                            },
                            {
                                "box": {
                                    "id": "obj-13",
                                    "maxclass": "newobj",
                                    "numinlets": 1,
                                    "numoutlets": 0,
                                    "patching_rect": [ 50.0, 619.0, 105.0, 22.0 ],
                                    "text": "mc.s~ @chans #2"
                                }
                            },
                            {
                                "box": {
                                    "id": "obj-14",
                                    "maxclass": "newobj",
                                    "numinlets": 1,
                                    "numoutlets": 1,
                                    "outlettype": [ "multichannelsignal" ],
                                    "patching_rect": [ 50.0, 377.0, 103.0, 22.0 ],
                                    "text": "mc.r~ @chans #2"
                                }
                            },
                            {
                                "box": {
                                    "id": "obj-15",
                                    "maxclass": "message",
                                    "numinlets": 2,
                                    "numoutlets": 1,
                                    "outlettype": [ "" ],
                                    "patching_rect": [ 165.0, 572.0, 41.0, 22.0 ],
                                    "text": "set $1"
                                }
                            },
                            {
                                "box": {
                                    "id": "obj-16",
                                    "maxclass": "message",
                                    "numinlets": 2,
                                    "numoutlets": 1,
                                    "outlettype": [ "" ],
                                    "patching_rect": [ 50.0, 347.0, 50.0, 22.0 ],
                                    "text": "set $1"
                                }
                            },
                            {
                                "box": {
                                    "id": "obj-9",
                                    "maxclass": "newobj",
                                    "numinlets": 2,
                                    "numoutlets": 1,
                                    "outlettype": [ "int" ],
                                    "patching_rect": [ 86.0, 454.0, 29.5, 22.0 ],
                                    "text": "i"
                                }
                            },
                            {
                                "box": {
                                    "id": "obj-5",
                                    "maxclass": "newobj",
                                    "numinlets": 1,
                                    "numoutlets": 3,
                                    "outlettype": [ "", "", "" ],
                                    "patching_rect": [ 86.0, 422.0, 121.0, 22.0 ],
                                    "saved_object_attributes": {
                                        "initial": [ 0 ],
                                        "parameter_enable": 0,
                                        "parameter_mappable": 0
                                    },
                                    "text": "pattr toggle @initial 0",
                                    "varname": "toggle"
                                }
                            },
                            {
                                "box": {
                                    "comment": "toggle",
                                    "id": "obj-7",
                                    "index": 1,
                                    "maxclass": "inlet",
                                    "numinlets": 0,
                                    "numoutlets": 1,
                                    "outlettype": [ "" ],
                                    "patching_rect": [ 80.0, 40.0, 30.0, 30.0 ]
                                }
                            },
                            {
                                "box": {
                                    "id": "obj-6",
                                    "maxclass": "comment",
                                    "numinlets": 1,
                                    "numoutlets": 0,
                                    "patching_rect": [ 121.0, 209.0, 150.0, 20.0 ],
                                    "text": "Insert Effects / Synth Here"
                                }
                            },
                            {
                                "box": {
                                    "comment": "Fade Out Done Bang",
                                    "id": "obj-2",
                                    "index": 2,
                                    "maxclass": "outlet",
                                    "numinlets": 1,
                                    "numoutlets": 0,
                                    "patching_rect": [ 121.0, 743.278015, 30.0, 30.0 ]
                                }
                            },
                            {
                                "box": {
                                    "comment": "Fade In Start Bang",
                                    "id": "obj-1",
                                    "index": 1,
                                    "maxclass": "outlet",
                                    "numinlets": 1,
                                    "numoutlets": 0,
                                    "patching_rect": [ 85.5, 743.278015, 30.0, 30.0 ]
                                }
                            },
                            {
                                "box": {
                                    "id": "obj-3",
                                    "maxclass": "newobj",
                                    "numinlets": 1,
                                    "numoutlets": 3,
                                    "outlettype": [ "", "", "" ],
                                    "patching_rect": [ 121.0, 454.0, 145.0, 22.0 ],
                                    "saved_object_attributes": {
                                        "initial": [ 50 ],
                                        "parameter_enable": 0,
                                        "parameter_mappable": 0
                                    },
                                    "text": "pattr fade-time @initial 50",
                                    "varname": "fade-time"
                                }
                            },
                            {
                                "box": {
                                    "id": "obj-4",
                                    "maxclass": "newobj",
                                    "numinlets": 3,
                                    "numoutlets": 3,
                                    "outlettype": [ "multichannelsignal", "bang", "bang" ],
                                    "patching_rect": [ 50.0, 495.0, 90.0, 22.0 ],
                                    "text": "mc-Fade-in-out"
                                }
                            }
                        ],
                        "lines": [
                            {
                                "patchline": {
                                    "destination": [ "obj-12", 0 ],
                                    "source": [ "obj-10", 0 ]
                                }
                            },
                            {
                                "patchline": {
                                    "destination": [ "obj-15", 0 ],
                                    "source": [ "obj-11", 0 ]
                                }
                            },
                            {
                                "patchline": {
                                    "destination": [ "obj-16", 0 ],
                                    "source": [ "obj-12", 0 ]
                                }
                            },
                            {
                                "patchline": {
                                    "destination": [ "obj-4", 0 ],
                                    "source": [ "obj-14", 0 ]
                                }
                            },
                            {
                                "patchline": {
                                    "destination": [ "obj-13", 0 ],
                                    "midpoints": [ 174.5, 610.5, 59.5, 610.5 ],
                                    "source": [ "obj-15", 0 ]
                                }
                            },
                            {
                                "patchline": {
                                    "destination": [ "obj-14", 0 ],
                                    "source": [ "obj-16", 0 ]
                                }
                            },
                            {
                                "patchline": {
                                    "destination": [ "obj-92", 0 ],
                                    "source": [ "obj-18", 0 ]
                                }
                            },
                            {
                                "patchline": {
                                    "destination": [ "obj-18", 1 ],
                                    "source": [ "obj-19", 0 ]
                                }
                            },
                            {
                                "patchline": {
                                    "destination": [ "obj-23", 0 ],
                                    "midpoints": [ 322.5, 351.0, 322.5, 351.0 ],
                                    "source": [ "obj-20", 0 ]
                                }
                            },
                            {
                                "patchline": {
                                    "destination": [ "obj-18", 0 ],
                                    "source": [ "obj-21", 0 ]
                                }
                            },
                            {
                                "patchline": {
                                    "destination": [ "obj-21", 0 ],
                                    "source": [ "obj-23", 0 ]
                                }
                            },
                            {
                                "patchline": {
                                    "destination": [ "obj-92", 2 ],
                                    "midpoints": [ 491.5, 536.0394707322121, 491.4514544606209, 536.0394707322121 ],
                                    "source": [ "obj-25", 1 ]
                                }
                            },
                            {
                                "patchline": {
                                    "destination": [ "obj-4", 2 ],
                                    "midpoints": [ 130.5, 483.278015, 130.5, 483.278015 ],
                                    "source": [ "obj-3", 0 ]
                                }
                            },
                            {
                                "patchline": {
                                    "destination": [ "obj-1", 0 ],
                                    "source": [ "obj-4", 1 ]
                                }
                            },
                            {
                                "patchline": {
                                    "destination": [ "obj-13", 0 ],
                                    "source": [ "obj-4", 0 ]
                                }
                            },
                            {
                                "patchline": {
                                    "destination": [ "obj-2", 0 ],
                                    "source": [ "obj-4", 2 ]
                                }
                            },
                            {
                                "patchline": {
                                    "destination": [ "obj-9", 0 ],
                                    "source": [ "obj-5", 0 ]
                                }
                            },
                            {
                                "patchline": {
                                    "destination": [ "obj-101", 0 ],
                                    "order": 1,
                                    "source": [ "obj-64", 0 ]
                                }
                            },
                            {
                                "patchline": {
                                    "destination": [ "obj-92", 1 ],
                                    "midpoints": [ 322.5, 620.0, 308.73948291937506, 620.0, 308.73948291937506, 530.0, 406.97572723031044, 530.0 ],
                                    "order": 0,
                                    "source": [ "obj-64", 0 ]
                                }
                            },
                            {
                                "patchline": {
                                    "destination": [ "obj-43", 0 ],
                                    "midpoints": [ 403.5, 564.8289440274239 ],
                                    "source": [ "obj-69", 0 ]
                                }
                            },
                            {
                                "patchline": {
                                    "destination": [ "obj-5", 0 ],
                                    "source": [ "obj-7", 0 ]
                                }
                            },
                            {
                                "patchline": {
                                    "destination": [ "obj-11", 0 ],
                                    "source": [ "obj-8", 0 ]
                                }
                            },
                            {
                                "patchline": {
                                    "destination": [ "obj-4", 1 ],
                                    "source": [ "obj-9", 0 ]
                                }
                            },
                            {
                                "patchline": {
                                    "destination": [ "obj-101", 1 ],
                                    "midpoints": [ 364.7378636151552, 602.0, 380.5, 602.0 ],
                                    "source": [ "obj-92", 1 ]
                                }
                            },
                            {
                                "patchline": {
                                    "destination": [ "obj-25", 0 ],
                                    "midpoints": [ 491.4514544606209, 563.2621360421181, 515.4485164582729, 563.2621360421181, 515.4485164582729, 505.9041841030121, 457.5, 505.9041841030121 ],
                                    "source": [ "obj-92", 4 ]
                                }
                            },
                            {
                                "patchline": {
                                    "destination": [ "obj-35", 0 ],
                                    "midpoints": [ 406.97572723031044, 563.0, 332.5, 563.0 ],
                                    "source": [ "obj-92", 2 ]
                                }
                            },
                            {
                                "patchline": {
                                    "destination": [ "obj-64", 0 ],
                                    "midpoints": [ 322.5, 569.894594669342, 322.5, 569.894594669342 ],
                                    "source": [ "obj-92", 0 ]
                                }
                            },
                            {
                                "patchline": {
                                    "destination": [ "obj-69", 0 ],
                                    "midpoints": [ 449.21359084546566, 563.5044692605734, 403.5, 563.5044692605734 ],
                                    "source": [ "obj-92", 3 ]
                                }
                            }
                        ]
                    },
                    "patching_rect": [ 54.0, 180.0, 36.0, 22.0 ],
                    "saved_object_attributes": {
                        "globalpatchername": "u030044577"
                    },
                    "text": "p sr~",
                    "varname": "patcher"
                }
            },
            {
                "box": {
                    "fontname": "Arial",
                    "fontsize": 13.0,
                    "id": "obj-143",
                    "maxclass": "newobj",
                    "numinlets": 1,
                    "numoutlets": 1,
                    "outlettype": [ "" ],
                    "patching_rect": [ 54.0, 146.0, 58.0, 23.0 ],
                    "text": "pcontrol"
                }
            }
        ],
        "lines": [
            {
                "patchline": {
                    "destination": [ "obj-138", 1 ],
                    "midpoints": [ 167.5, 174.25, 80.5, 174.25 ],
                    "source": [ "obj-1", 0 ]
                }
            },
            {
                "patchline": {
                    "destination": [ "obj-52", 1 ],
                    "midpoints": [ 80.5, 211.9803917539864, 120.12820518016815, 211.9803917539864, 120.12820518016815, 105.54008163340382, 93.5, 105.54008163340382 ],
                    "source": [ "obj-138", 1 ]
                }
            },
            {
                "patchline": {
                    "destination": [ "obj-52", 0 ],
                    "midpoints": [ 63.5, 211.9803917539864, 47.60897409915924, 211.9803917539864, 47.60897409915924, 105.54008163340382, 63.5, 105.54008163340382 ],
                    "source": [ "obj-138", 0 ]
                }
            },
            {
                "patchline": {
                    "destination": [ "obj-138", 0 ],
                    "source": [ "obj-143", 0 ]
                }
            },
            {
                "patchline": {
                    "destination": [ "obj-1", 0 ],
                    "source": [ "obj-2", 0 ]
                }
            },
            {
                "patchline": {
                    "destination": [ "obj-143", 0 ],
                    "source": [ "obj-52", 0 ]
                }
            }
        ]
    }
}