{
    "patcher": {
        "fileversion": 1,
        "appversion": {
            "major": 9,
            "minor": 1,
            "revision": 1,
            "architecture": "x64",
            "modernui": 1
        },
        "classnamespace": "box",
        "rect": [ 170.0, 135.0, 1000.0, 730.0 ],
        "subpatcher_template": "hook-template",
        "boxes": [
            {
                "box": {
                    "id": "obj-5",
                    "maxclass": "newobj",
                    "numinlets": 1,
                    "numoutlets": 1,
                    "outlettype": [ "" ],
                    "patching_rect": [ 129.0, 107.0, 100.0, 22.0 ],
                    "text": "loadmess mute 1"
                }
            },
            {
                "box": {
                    "id": "obj-3",
                    "maxclass": "newobj",
                    "numinlets": 1,
                    "numoutlets": 1,
                    "outlettype": [ "bang" ],
                    "patching_rect": [ 54.0, 107.0, 58.0, 22.0 ],
                    "text": "loadbang"
                }
            },
            {
                "box": {
                    "id": "obj-2",
                    "maxclass": "newobj",
                    "numinlets": 1,
                    "numoutlets": 3,
                    "outlettype": [ "int", "int", "int" ],
                    "patching_rect": [ 54.0, 145.0, 56.0, 22.0 ],
                    "text": "thispoly~"
                }
            },
            {
                "box": {
                    "id": "obj-37",
                    "maxclass": "comment",
                    "numinlets": 1,
                    "numoutlets": 0,
                    "patching_rect": [ 122.0, 181.0, 167.09401726722717, 20.0 ],
                    "text": "Give this subpatcher a name"
                }
            },
            {
                "box": {
                    "id": "obj-138",
                    "maxclass": "newobj",
                    "numinlets": 1,
                    "numoutlets": 0,
                    "patcher": {
                        "fileversion": 1,
                        "appversion": {
                            "major": 9,
                            "minor": 1,
                            "revision": 1,
                            "architecture": "x64",
                            "modernui": 1
                        },
                        "classnamespace": "box",
                        "rect": [ -233.0, 279.0, 1639.0, 850.0 ],
                        "globalpatchername": "u988067400",
                        "boxes": [
                            {
                                "box": {
                                    "id": "obj-12",
                                    "linecount": 3,
                                    "maxclass": "comment",
                                    "numinlets": 1,
                                    "numoutlets": 0,
                                    "patching_rect": [ 294.0, 645.0, 127.0, 48.0 ],
                                    "presentation_linecount": 3,
                                    "text": "Hooks Pattr\nHou Lam Wu (Eagle)\n2023-2026",
                                    "textjustification": 2
                                }
                            },
                            {
                                "box": {
                                    "id": "obj-92",
                                    "maxclass": "newobj",
                                    "numinlets": 3,
                                    "numoutlets": 5,
                                    "outlettype": [ "", "", "", "", "" ],
                                    "patching_rect": [ 74.0, 683.0, 187.95145446062088, 22.0 ],
                                    "text": "hooks.functions #1"
                                }
                            },
                            {
                                "box": {
                                    "id": "obj-22",
                                    "linecount": 3,
                                    "maxclass": "comment",
                                    "numinlets": 1,
                                    "numoutlets": 0,
                                    "patching_rect": [ 192.0, 732.0, 229.1262104511261, 48.0 ],
                                    "presentation_linecount": 3,
                                    "text": "Connects Pattr and Line Objects with preformatted receive objects and allow faster access with Hook-Helper",
                                    "textjustification": 2
                                }
                            },
                            {
                                "box": {
                                    "id": "obj-35",
                                    "maxclass": "newobj",
                                    "numinlets": 1,
                                    "numoutlets": 2,
                                    "outlettype": [ "", "" ],
                                    "patching_rect": [ 84.0, 708.0, 67.0, 22.0 ],
                                    "save": [ "#N", "thispatcher", ";", "#Q", "end", ";" ],
                                    "text": "thispatcher"
                                }
                            },
                            {
                                "box": {
                                    "id": "obj-101",
                                    "maxclass": "newobj",
                                    "numinlets": 2,
                                    "numoutlets": 2,
                                    "outlettype": [ "", "" ],
                                    "patching_rect": [ 74.0, 758.0, 77.0, 22.0 ],
                                    "text": "hooks.loader"
                                }
                            },
                            {
                                "box": {
                                    "id": "obj-25",
                                    "maxclass": "newobj",
                                    "numinlets": 1,
                                    "numoutlets": 2,
                                    "outlettype": [ "", "" ],
                                    "patching_rect": [ 209.0, 653.0, 53.0, 22.0 ],
                                    "text": "pattrhub"
                                }
                            },
                            {
                                "box": {
                                    "id": "obj-43",
                                    "maxclass": "newobj",
                                    "numinlets": 1,
                                    "numoutlets": 1,
                                    "outlettype": [ "" ],
                                    "patching_rect": [ 155.0, 758.0, 70.0, 22.0 ],
                                    "text": "pattrmarker"
                                }
                            },
                            {
                                "box": {
                                    "id": "obj-64",
                                    "maxclass": "newobj",
                                    "numinlets": 1,
                                    "numoutlets": 1,
                                    "outlettype": [ "" ],
                                    "patching_rect": [ 74.0, 735.0, 135.0, 22.0 ],
                                    "saved_object_attributes": {
                                        "client_rect": [ 100, 134, 454, 262 ],
                                        "parameter_enable": 0,
                                        "parameter_mappable": 0,
                                        "storage_rect": [ 583, 69, 1034, 197 ]
                                    },
                                    "text": "pattrstorage @greedy 2",
                                    "varname": "#1-sub"
                                }
                            },
                            {
                                "box": {
                                    "attr": "name",
                                    "id": "obj-69",
                                    "maxclass": "attrui",
                                    "numinlets": 1,
                                    "numoutlets": 1,
                                    "outlettype": [ "" ],
                                    "parameter_enable": 0,
                                    "patching_rect": [ 155.0, 708.0, 266.3004574775696, 22.0 ]
                                }
                            },
                            {
                                "box": {
                                    "angle": 270.0,
                                    "bgcolor": [ 1.0, 1.0, 1.0, 0.47 ],
                                    "id": "obj-28",
                                    "maxclass": "panel",
                                    "mode": 0,
                                    "numinlets": 1,
                                    "numoutlets": 0,
                                    "patching_rect": [ 67.0, 642.0, 359.223296046257, 143.2038815319538 ],
                                    "proportion": 0.5
                                }
                            },
                            {
                                "box": {
                                    "id": "obj-13",
                                    "maxclass": "message",
                                    "numinlets": 2,
                                    "numoutlets": 1,
                                    "outlettype": [ "" ],
                                    "patching_rect": [ 181.0, 471.0, 50.0, 22.0 ]
                                }
                            },
                            {
                                "box": {
                                    "id": "obj-11",
                                    "maxclass": "newobj",
                                    "numinlets": 1,
                                    "numoutlets": 1,
                                    "outlettype": [ "" ],
                                    "patching_rect": [ 74.0, 576.0, 54.0, 22.0 ],
                                    "text": "deferlow"
                                }
                            },
                            {
                                "box": {
                                    "id": "obj-10",
                                    "maxclass": "newobj",
                                    "numinlets": 2,
                                    "numoutlets": 1,
                                    "outlettype": [ "" ],
                                    "patching_rect": [ 74.0, 615.0, 75.0, 22.0 ],
                                    "text": "sprintf %s%i"
                                }
                            },
                            {
                                "box": {
                                    "comment": "",
                                    "id": "obj-2",
                                    "index": 1,
                                    "maxclass": "inlet",
                                    "numinlets": 0,
                                    "numoutlets": 1,
                                    "outlettype": [ "int" ],
                                    "patching_rect": [ 119.5, 201.0, 30.0, 30.0 ]
                                }
                            },
                            {
                                "box": {
                                    "id": "obj-9",
                                    "maxclass": "newobj",
                                    "numinlets": 1,
                                    "numoutlets": 1,
                                    "outlettype": [ "" ],
                                    "patching_rect": [ 144.0, 345.0, 68.0, 22.0 ],
                                    "text": "rm reset yy"
                                }
                            },
                            {
                                "box": {
                                    "id": "obj-8",
                                    "maxclass": "newobj",
                                    "numinlets": 1,
                                    "numoutlets": 1,
                                    "outlettype": [ "" ],
                                    "patching_rect": [ 67.0, 289.0, 68.0, 22.0 ],
                                    "text": "rm reset xx"
                                }
                            },
                            {
                                "box": {
                                    "id": "obj-5",
                                    "maxclass": "newobj",
                                    "numinlets": 1,
                                    "numoutlets": 3,
                                    "outlettype": [ "", "", "" ],
                                    "patching_rect": [ 144.0, 377.0, 100.0, 22.0 ],
                                    "saved_object_attributes": {
                                        "initial": [ "yy" ],
                                        "parameter_enable": 0,
                                        "parameter_mappable": 0
                                    },
                                    "text": "pattr s @initial yy",
                                    "varname": "s"
                                }
                            },
                            {
                                "box": {
                                    "id": "obj-4",
                                    "maxclass": "newobj",
                                    "numinlets": 1,
                                    "numoutlets": 3,
                                    "outlettype": [ "", "", "" ],
                                    "patching_rect": [ 67.0, 328.0, 98.0, 22.0 ],
                                    "saved_object_attributes": {
                                        "initial": [ "xx" ],
                                        "parameter_enable": 0,
                                        "parameter_mappable": 0
                                    },
                                    "text": "pattr r @initial xx",
                                    "varname": "r"
                                }
                            },
                            {
                                "box": {
                                    "id": "obj-3",
                                    "maxclass": "newobj",
                                    "numinlets": 1,
                                    "numoutlets": 0,
                                    "patching_rect": [ 67.0, 471.0, 49.0, 22.0 ],
                                    "text": "forward"
                                }
                            },
                            {
                                "box": {
                                    "id": "obj-1",
                                    "maxclass": "newobj",
                                    "numinlets": 1,
                                    "numoutlets": 1,
                                    "outlettype": [ "" ],
                                    "patching_rect": [ 67.0, 415.0, 19.0, 22.0 ],
                                    "text": "r"
                                }
                            },
                            {
                                "box": {
                                    "id": "obj-21",
                                    "maxclass": "newobj",
                                    "numinlets": 0,
                                    "numoutlets": 1,
                                    "outlettype": [ "" ],
                                    "patching_rect": [ 74.0, 517.0, 43.0, 22.0 ],
                                    "text": "r reset"
                                }
                            },
                            {
                                "box": {
                                    "id": "obj-67",
                                    "maxclass": "newobj",
                                    "numinlets": 1,
                                    "numoutlets": 2,
                                    "outlettype": [ "", "" ],
                                    "patching_rect": [ 74.0, 547.0, 72.0, 22.0 ],
                                    "text": "patcherargs"
                                }
                            },
                            {
                                "box": {
                                    "id": "obj-6",
                                    "maxclass": "message",
                                    "numinlets": 2,
                                    "numoutlets": 1,
                                    "outlettype": [ "" ],
                                    "patching_rect": [ 144.0, 417.0, 51.0, 22.0 ],
                                    "text": "send $1"
                                }
                            },
                            {
                                "box": {
                                    "id": "obj-7",
                                    "maxclass": "message",
                                    "numinlets": 2,
                                    "numoutlets": 1,
                                    "outlettype": [ "" ],
                                    "patching_rect": [ 67.0, 385.0, 50.0, 22.0 ],
                                    "text": "set $1"
                                }
                            }
                        ],
                        "lines": [
                            {
                                "patchline": {
                                    "destination": [ "obj-13", 1 ],
                                    "midpoints": [ 76.5, 454.0, 221.5, 454.0 ],
                                    "order": 0,
                                    "source": [ "obj-1", 0 ]
                                }
                            },
                            {
                                "patchline": {
                                    "destination": [ "obj-3", 0 ],
                                    "order": 1,
                                    "source": [ "obj-1", 0 ]
                                }
                            },
                            {
                                "patchline": {
                                    "destination": [ "obj-92", 0 ],
                                    "source": [ "obj-10", 0 ]
                                }
                            },
                            {
                                "patchline": {
                                    "destination": [ "obj-10", 0 ],
                                    "source": [ "obj-11", 0 ]
                                }
                            },
                            {
                                "patchline": {
                                    "destination": [ "obj-10", 1 ],
                                    "source": [ "obj-2", 0 ]
                                }
                            },
                            {
                                "patchline": {
                                    "destination": [ "obj-67", 0 ],
                                    "midpoints": [ 83.5, 542.0, 83.5, 542.0 ],
                                    "source": [ "obj-21", 0 ]
                                }
                            },
                            {
                                "patchline": {
                                    "destination": [ "obj-92", 2 ],
                                    "midpoints": [ 252.5, 679.0394707322121, 252.45145446062088, 679.0394707322121 ],
                                    "source": [ "obj-25", 1 ]
                                }
                            },
                            {
                                "patchline": {
                                    "destination": [ "obj-7", 0 ],
                                    "source": [ "obj-4", 0 ]
                                }
                            },
                            {
                                "patchline": {
                                    "destination": [ "obj-6", 0 ],
                                    "source": [ "obj-5", 0 ]
                                }
                            },
                            {
                                "patchline": {
                                    "destination": [ "obj-3", 0 ],
                                    "midpoints": [ 153.5, 458.5, 76.5, 458.5 ],
                                    "source": [ "obj-6", 0 ]
                                }
                            },
                            {
                                "patchline": {
                                    "destination": [ "obj-101", 0 ],
                                    "order": 1,
                                    "source": [ "obj-64", 0 ]
                                }
                            },
                            {
                                "patchline": {
                                    "destination": [ "obj-92", 1 ],
                                    "midpoints": [ 83.5, 763.0, 69.73948291937506, 763.0, 69.73948291937506, 673.0, 167.97572723031044, 673.0 ],
                                    "order": 0,
                                    "source": [ "obj-64", 0 ]
                                }
                            },
                            {
                                "patchline": {
                                    "destination": [ "obj-11", 0 ],
                                    "source": [ "obj-67", 0 ]
                                }
                            },
                            {
                                "patchline": {
                                    "destination": [ "obj-43", 0 ],
                                    "midpoints": [ 164.5, 707.8289440274239 ],
                                    "source": [ "obj-69", 0 ]
                                }
                            },
                            {
                                "patchline": {
                                    "destination": [ "obj-1", 0 ],
                                    "source": [ "obj-7", 0 ]
                                }
                            },
                            {
                                "patchline": {
                                    "destination": [ "obj-4", 0 ],
                                    "source": [ "obj-8", 0 ]
                                }
                            },
                            {
                                "patchline": {
                                    "destination": [ "obj-5", 0 ],
                                    "source": [ "obj-9", 0 ]
                                }
                            },
                            {
                                "patchline": {
                                    "destination": [ "obj-101", 1 ],
                                    "midpoints": [ 125.73786361515522, 745.0, 141.5, 745.0 ],
                                    "source": [ "obj-92", 1 ]
                                }
                            },
                            {
                                "patchline": {
                                    "destination": [ "obj-25", 0 ],
                                    "midpoints": [ 252.45145446062088, 706.2621360421181, 276.44851645827293, 706.2621360421181, 276.44851645827293, 648.9041841030121, 218.5, 648.9041841030121 ],
                                    "source": [ "obj-92", 4 ]
                                }
                            },
                            {
                                "patchline": {
                                    "destination": [ "obj-35", 0 ],
                                    "midpoints": [ 167.97572723031044, 706.0, 93.5, 706.0 ],
                                    "source": [ "obj-92", 2 ]
                                }
                            },
                            {
                                "patchline": {
                                    "destination": [ "obj-64", 0 ],
                                    "midpoints": [ 83.5, 712.894594669342, 83.5, 712.894594669342 ],
                                    "source": [ "obj-92", 0 ]
                                }
                            },
                            {
                                "patchline": {
                                    "destination": [ "obj-69", 0 ],
                                    "midpoints": [ 210.21359084546566, 706.5044692605734, 164.5, 706.5044692605734 ],
                                    "source": [ "obj-92", 3 ]
                                }
                            }
                        ]
                    },
                    "patching_rect": [ 54.0, 180.0, 40.0, 22.0 ],
                    "saved_object_attributes": {
                        "globalpatchername": "u988067400"
                    },
                    "text": "p sr",
                    "varname": "patcher"
                }
            }
        ],
        "lines": [
            {
                "patchline": {
                    "destination": [ "obj-138", 0 ],
                    "source": [ "obj-2", 0 ]
                }
            },
            {
                "patchline": {
                    "destination": [ "obj-2", 0 ],
                    "source": [ "obj-3", 0 ]
                }
            },
            {
                "patchline": {
                    "destination": [ "obj-2", 0 ],
                    "source": [ "obj-5", 0 ]
                }
            }
        ]
    }
}