{
	"patcher" : 	{
		"fileversion" : 1,
		"appversion" : 		{
			"major" : 8,
			"minor" : 5,
			"revision" : 0,
			"architecture" : "x64",
			"modernui" : 1
		}
,
		"classnamespace" : "box",
		"rect" : [ 42.0, 85.0, 1852.0, 969.0 ],
		"bglocked" : 0,
		"openinpresentation" : 0,
		"default_fontsize" : 12.0,
		"default_fontface" : 0,
		"default_fontname" : "Arial",
		"gridonopen" : 1,
		"gridsize" : [ 15.0, 15.0 ],
		"gridsnaponopen" : 1,
		"objectsnaponopen" : 1,
		"statusbarvisible" : 2,
		"toolbarvisible" : 1,
		"lefttoolbarpinned" : 0,
		"toptoolbarpinned" : 0,
		"righttoolbarpinned" : 0,
		"bottomtoolbarpinned" : 0,
		"toolbars_unpinned_last_save" : 0,
		"tallnewobj" : 0,
		"boxanimatetime" : 200,
		"enablehscroll" : 1,
		"enablevscroll" : 1,
		"devicewidth" : 0.0,
		"description" : "",
		"digest" : "",
		"tags" : "",
		"style" : "",
		"subpatcher_template" : "",
		"assistshowspatchername" : 0,
		"globalpatchername" : "synth2-metro-deviation",
		"boxes" : [ 			{
				"box" : 				{
					"id" : "obj-44",
					"maxclass" : "newobj",
					"numinlets" : 1,
					"numoutlets" : 1,
					"outlettype" : [ "" ],
					"patching_rect" : [ 358.033643990755081, 1339.823450028896332, 111.0, 22.0 ],
					"text" : "rip toggle-all #0",
					"varname" : "toggle-all[1]"
				}

			}
, 			{
				"box" : 				{
					"id" : "obj-36",
					"maxclass" : "newobj",
					"numinlets" : 1,
					"numoutlets" : 1,
					"outlettype" : [ "" ],
					"patching_rect" : [ 358.033643990755081, 1363.823450028896332, 72.0, 22.0 ],
					"text" : "rip out-ease"
				}

			}
, 			{
				"box" : 				{
					"id" : "obj-37",
					"maxclass" : "newobj",
					"numinlets" : 1,
					"numoutlets" : 1,
					"outlettype" : [ "" ],
					"patching_rect" : [ 358.033643990755081, 1291.823450028896332, 115.0, 22.0 ],
					"text" : "rfp time-ease #0"
				}

			}
, 			{
				"box" : 				{
					"id" : "obj-38",
					"maxclass" : "newobj",
					"numinlets" : 1,
					"numoutlets" : 1,
					"outlettype" : [ "" ],
					"patching_rect" : [ 358.033643990755081, 1264.751694142818451, 101.0, 22.0 ],
					"text" : "rfp sustain #0",
					"varname" : "sustain[2]"
				}

			}
, 			{
				"box" : 				{
					"id" : "obj-39",
					"maxclass" : "newobj",
					"numinlets" : 1,
					"numoutlets" : 1,
					"outlettype" : [ "" ],
					"patching_rect" : [ 358.033643990755081, 1315.823450028896332, 114.0, 22.0 ],
					"text" : "rip resolution #0"
				}

			}
, 			{
				"box" : 				{
					"id" : "obj-40",
					"maxclass" : "newobj",
					"numinlets" : 1,
					"numoutlets" : 1,
					"outlettype" : [ "" ],
					"patching_rect" : [ 358.033643990755081, 1240.751694142818451, 128.0, 22.0 ],
					"text" : "rfp time-deviate #0"
				}

			}
, 			{
				"box" : 				{
					"id" : "obj-41",
					"maxclass" : "newobj",
					"numinlets" : 1,
					"numoutlets" : 1,
					"outlettype" : [ "" ],
					"patching_rect" : [ 358.033643990755081, 1216.751694142818451, 123.0, 22.0 ],
					"text" : "rfp time-center #0"
				}

			}
, 			{
				"box" : 				{
					"id" : "obj-42",
					"maxclass" : "newobj",
					"numinlets" : 1,
					"numoutlets" : 1,
					"outlettype" : [ "" ],
					"patching_rect" : [ 358.033643990755081, 1192.751694142818451, 96.0, 22.0 ],
					"text" : "rfp center #0"
				}

			}
, 			{
				"box" : 				{
					"id" : "obj-43",
					"maxclass" : "newobj",
					"numinlets" : 1,
					"numoutlets" : 1,
					"outlettype" : [ "" ],
					"patching_rect" : [ 358.033643990755081, 1168.751694142818451, 101.0, 22.0 ],
					"text" : "rfp deviate #0"
				}

			}
, 			{
				"box" : 				{
					"id" : "obj-27",
					"maxclass" : "message",
					"numinlets" : 2,
					"numoutlets" : 1,
					"outlettype" : [ "" ],
					"patching_rect" : [ 1059.060500899553062, 811.872155108451807, 58.0, 22.0 ],
					"text" : "loadbang"
				}

			}
, 			{
				"box" : 				{
					"id" : "obj-28",
					"maxclass" : "newobj",
					"numinlets" : 1,
					"numoutlets" : 1,
					"outlettype" : [ "" ],
					"patching_rect" : [ 1059.060500899553062, 770.449011385440826, 19.0, 22.0 ],
					"text" : "r"
				}

			}
, 			{
				"box" : 				{
					"id" : "obj-29",
					"maxclass" : "newobj",
					"numinlets" : 1,
					"numoutlets" : 1,
					"outlettype" : [ "" ],
					"patching_rect" : [ 1059.060500899553062, 741.931926587707494, 134.0, 22.0 ],
					"text" : "sprintf set %s-loadbang"
				}

			}
, 			{
				"box" : 				{
					"id" : "obj-30",
					"maxclass" : "newobj",
					"numinlets" : 1,
					"numoutlets" : 1,
					"outlettype" : [ "" ],
					"patching_rect" : [ 941.546377936601402, 741.931926587707494, 111.0, 22.0 ],
					"text" : "sprintf set %s-open"
				}

			}
, 			{
				"box" : 				{
					"id" : "obj-31",
					"maxclass" : "message",
					"numinlets" : 2,
					"numoutlets" : 1,
					"outlettype" : [ "" ],
					"patching_rect" : [ 941.546377936601402, 811.872155108451807, 33.0, 22.0 ],
					"text" : "front"
				}

			}
, 			{
				"box" : 				{
					"id" : "obj-32",
					"maxclass" : "newobj",
					"numinlets" : 1,
					"numoutlets" : 1,
					"outlettype" : [ "" ],
					"patching_rect" : [ 941.546377936601402, 770.449011385440826, 19.0, 22.0 ],
					"text" : "r"
				}

			}
, 			{
				"box" : 				{
					"id" : "obj-33",
					"maxclass" : "newobj",
					"numinlets" : 1,
					"numoutlets" : 2,
					"outlettype" : [ "", "" ],
					"patching_rect" : [ 941.546377936601402, 849.74557683944704, 67.0, 22.0 ],
					"save" : [ "#N", "thispatcher", ";", "#Q", "end", ";" ],
					"text" : "thispatcher"
				}

			}
, 			{
				"box" : 				{
					"id" : "obj-344",
					"maxclass" : "newobj",
					"numinlets" : 0,
					"numoutlets" : 1,
					"outlettype" : [ "" ],
					"patching_rect" : [ 1221.107706934213638, 671.834101557731628, 43.0, 22.0 ],
					"text" : "r reset"
				}

			}
, 			{
				"box" : 				{
					"id" : "obj-304",
					"maxclass" : "comment",
					"numinlets" : 1,
					"numoutlets" : 0,
					"patching_rect" : [ 358.033643990755081, 709.502264261245728, 150.0, 20.0 ],
					"text" : "pattr access"
				}

			}
, 			{
				"box" : 				{
					"id" : "obj-305",
					"maxclass" : "comment",
					"numinlets" : 1,
					"numoutlets" : 0,
					"patching_rect" : [ 480.064080069065085, 709.502264261245728, 152.690583050251007, 20.0 ],
					"text" : "Open pattrstorage window"
				}

			}
, 			{
				"box" : 				{
					"id" : "obj-306",
					"maxclass" : "comment",
					"numinlets" : 1,
					"numoutlets" : 0,
					"patching_rect" : [ 358.033643990755081, 934.891194999217987, 150.0, 20.0 ],
					"text" : "rfp rip to connect pattr"
				}

			}
, 			{
				"box" : 				{
					"id" : "obj-307",
					"maxclass" : "comment",
					"numinlets" : 1,
					"numoutlets" : 0,
					"patching_rect" : [ 640.062472084760657, 709.502264261245728, 150.0, 20.0 ],
					"text" : "For Score Writer"
				}

			}
, 			{
				"box" : 				{
					"id" : "obj-308",
					"maxclass" : "comment",
					"numinlets" : 1,
					"numoutlets" : 0,
					"patching_rect" : [ 1130.937301859259605, 709.502264261245728, 238.340810149907952, 20.0 ],
					"text" : "Setup Patcher Name and pattrmarker"
				}

			}
, 			{
				"box" : 				{
					"id" : "obj-309",
					"maxclass" : "comment",
					"numinlets" : 1,
					"numoutlets" : 0,
					"patching_rect" : [ 771.062472084760657, 709.502264261245728, 182.286996603012085, 20.0 ],
					"text" : "Save States to Message Box"
				}

			}
, 			{
				"box" : 				{
					"id" : "obj-310",
					"maxclass" : "newobj",
					"numinlets" : 0,
					"numoutlets" : 1,
					"outlettype" : [ "" ],
					"patching_rect" : [ 773.379973198175321, 884.308468520641327, 97.0, 22.0 ],
					"text" : "r #0-name"
				}

			}
, 			{
				"box" : 				{
					"id" : "obj-311",
					"maxclass" : "newobj",
					"numinlets" : 1,
					"numoutlets" : 2,
					"outlettype" : [ "", "" ],
					"patching_rect" : [ 1221.107706934213638, 826.43053583253095, 31.0, 22.0 ],
					"text" : "t s s"
				}

			}
, 			{
				"box" : 				{
					"id" : "obj-312",
					"maxclass" : "newobj",
					"numinlets" : 1,
					"numoutlets" : 1,
					"outlettype" : [ "" ],
					"patching_rect" : [ 921.426494518518439, 1040.528359391689264, 121.0, 22.0 ],
					"text" : "sprintf send %s-state"
				}

			}
, 			{
				"box" : 				{
					"id" : "obj-313",
					"maxclass" : "newobj",
					"numinlets" : 0,
					"numoutlets" : 1,
					"outlettype" : [ "" ],
					"patching_rect" : [ 921.426494518518439, 1003.525999903678894, 97.0, 22.0 ],
					"text" : "r #0-name"
				}

			}
, 			{
				"box" : 				{
					"id" : "obj-314",
					"maxclass" : "newobj",
					"numinlets" : 1,
					"numoutlets" : 0,
					"patching_rect" : [ 805.827174702882758, 1093.473646631240626, 49.0, 22.0 ],
					"text" : "forward"
				}

			}
, 			{
				"box" : 				{
					"id" : "obj-315",
					"maxclass" : "newobj",
					"numinlets" : 1,
					"numoutlets" : 1,
					"outlettype" : [ "" ],
					"patching_rect" : [ 771.062472084760657, 741.931926587707494, 131.0, 22.0 ],
					"text" : "sprintf set %s-get-state"
				}

			}
, 			{
				"box" : 				{
					"id" : "obj-316",
					"maxclass" : "newobj",
					"numinlets" : 1,
					"numoutlets" : 1,
					"outlettype" : [ "" ],
					"patching_rect" : [ 771.062472084760657, 770.449011385440826, 19.0, 22.0 ],
					"text" : "r"
				}

			}
, 			{
				"box" : 				{
					"id" : "obj-317",
					"maxclass" : "newobj",
					"numinlets" : 1,
					"numoutlets" : 2,
					"outlettype" : [ "", "" ],
					"patching_rect" : [ 771.062472084760657, 849.74557683944704, 53.0, 22.0 ],
					"text" : "pattrhub"
				}

			}
, 			{
				"box" : 				{
					"id" : "obj-318",
					"maxclass" : "newobj",
					"numinlets" : 3,
					"numoutlets" : 1,
					"outlettype" : [ "" ],
					"patching_rect" : [ 805.827174702882758, 1011.664540866500829, 103.0, 22.0 ],
					"text" : "sprintf \\;%s-%s %f"
				}

			}
, 			{
				"box" : 				{
					"id" : "obj-319",
					"maxclass" : "message",
					"numinlets" : 2,
					"numoutlets" : 1,
					"outlettype" : [ "" ],
					"patching_rect" : [ 894.597225586175909, 946.550388216972351, 41.0, 22.0 ],
					"text" : "set $1"
				}

			}
, 			{
				"box" : 				{
					"id" : "obj-320",
					"maxclass" : "newobj",
					"numinlets" : 1,
					"numoutlets" : 1,
					"outlettype" : [ "" ],
					"patching_rect" : [ 805.06980886578549, 982.529954970783365, 53.0, 22.0 ],
					"text" : "prepend"
				}

			}
, 			{
				"box" : 				{
					"id" : "obj-321",
					"maxclass" : "newobj",
					"numinlets" : 0,
					"numoutlets" : 1,
					"outlettype" : [ "" ],
					"patching_rect" : [ 894.597225586175909, 922.550388216972351, 97.0, 22.0 ],
					"text" : "r #0-name"
				}

			}
, 			{
				"box" : 				{
					"id" : "obj-322",
					"maxclass" : "newobj",
					"numinlets" : 2,
					"numoutlets" : 1,
					"outlettype" : [ "" ],
					"patching_rect" : [ 805.827174702882758, 1040.528359391689264, 42.0, 22.0 ],
					"text" : "thresh"
				}

			}
, 			{
				"box" : 				{
					"id" : "obj-323",
					"maxclass" : "newobj",
					"numinlets" : 1,
					"numoutlets" : 1,
					"outlettype" : [ "" ],
					"patching_rect" : [ 1221.107706934213638, 733.466066658496857, 157.0, 22.0 ],
					"text" : "loadmess #1-metro-dev"
				}

			}
, 			{
				"box" : 				{
					"id" : "obj-324",
					"maxclass" : "newobj",
					"numinlets" : 0,
					"numoutlets" : 1,
					"outlettype" : [ "" ],
					"patching_rect" : [ 637.377981761693945, 671.834101557731628, 97.0, 22.0 ],
					"text" : "r #0-name"
				}

			}
, 			{
				"box" : 				{
					"id" : "obj-325",
					"maxclass" : "newobj",
					"numinlets" : 1,
					"numoutlets" : 0,
					"patching_rect" : [ 1127.960650116205215, 889.18326924912617, 99.0, 22.0 ],
					"text" : "s #0-name"
				}

			}
, 			{
				"box" : 				{
					"id" : "obj-35",
					"maxclass" : "newobj",
					"numinlets" : 1,
					"numoutlets" : 1,
					"outlettype" : [ "" ],
					"patching_rect" : [ 637.377981761693945, 741.931926587707494, 114.0, 22.0 ],
					"text" : "sprintf set %s-score"
				}

			}
, 			{
				"box" : 				{
					"id" : "obj-326",
					"maxclass" : "newobj",
					"numinlets" : 1,
					"numoutlets" : 1,
					"outlettype" : [ "" ],
					"patching_rect" : [ 637.377981761693945, 770.449011385440826, 19.0, 22.0 ],
					"text" : "r"
				}

			}
, 			{
				"box" : 				{
					"id" : "obj-327",
					"maxclass" : "newobj",
					"numinlets" : 1,
					"numoutlets" : 1,
					"outlettype" : [ "" ],
					"patching_rect" : [ 480.064080069065085, 741.931926587707494, 125.0, 22.0 ],
					"text" : "sprintf set %s-params"
				}

			}
, 			{
				"box" : 				{
					"id" : "obj-328",
					"maxclass" : "newobj",
					"numinlets" : 1,
					"numoutlets" : 1,
					"outlettype" : [ "" ],
					"patching_rect" : [ 480.064080069065085, 770.449011385440826, 19.0, 22.0 ],
					"text" : "r"
				}

			}
, 			{
				"box" : 				{
					"id" : "obj-329",
					"maxclass" : "newobj",
					"numinlets" : 1,
					"numoutlets" : 1,
					"outlettype" : [ "" ],
					"patching_rect" : [ 358.033643990755081, 741.931926587707494, 109.0, 22.0 ],
					"text" : "sprintf set %s-pattr"
				}

			}
, 			{
				"box" : 				{
					"id" : "obj-334",
					"maxclass" : "message",
					"numinlets" : 2,
					"numoutlets" : 1,
					"outlettype" : [ "" ],
					"patching_rect" : [ 480.064080069065085, 799.111734628677368, 77.0, 22.0 ],
					"text" : "clientwindow"
				}

			}
, 			{
				"box" : 				{
					"id" : "obj-335",
					"maxclass" : "newobj",
					"numinlets" : 2,
					"numoutlets" : 0,
					"patching_rect" : [ 671.379973198175321, 917.47912649981663, 121.0, 22.0 ],
					"text" : "score-section-sender"
				}

			}
, 			{
				"box" : 				{
					"id" : "obj-336",
					"maxclass" : "message",
					"numinlets" : 2,
					"numoutlets" : 1,
					"outlettype" : [ "" ],
					"patching_rect" : [ 637.377981761693945, 811.872155108451807, 51.0, 22.0 ],
					"text" : "getstate"
				}

			}
, 			{
				"box" : 				{
					"id" : "obj-337",
					"maxclass" : "newobj",
					"numinlets" : 1,
					"numoutlets" : 2,
					"outlettype" : [ "", "" ],
					"patching_rect" : [ 637.379973198175321, 849.74557683944704, 53.0, 22.0 ],
					"text" : "pattrhub"
				}

			}
, 			{
				"box" : 				{
					"id" : "obj-338",
					"maxclass" : "newobj",
					"numinlets" : 1,
					"numoutlets" : 1,
					"outlettype" : [ "" ],
					"patching_rect" : [ 358.033643990755081, 770.449011385440826, 19.0, 22.0 ],
					"text" : "r"
				}

			}
, 			{
				"box" : 				{
					"id" : "obj-339",
					"maxclass" : "newobj",
					"numinlets" : 1,
					"numoutlets" : 1,
					"outlettype" : [ "" ],
					"patching_rect" : [ 1233.107706934213638, 889.18326924912617, 70.0, 22.0 ],
					"text" : "pattrmarker"
				}

			}
, 			{
				"box" : 				{
					"id" : "obj-340",
					"maxclass" : "newobj",
					"numinlets" : 1,
					"numoutlets" : 1,
					"outlettype" : [ "" ],
					"patching_rect" : [ 358.033643990755081, 849.74557683944704, 73.0, 22.0 ],
					"saved_object_attributes" : 					{
						"client_rect" : [ 1074, 336, 1588, 698 ],
						"parameter_enable" : 0,
						"parameter_mappable" : 0,
						"storage_rect" : [ 583, 69, 1034, 197 ]
					}
,
					"text" : "pattrstorage",
					"varname" : "u985017263[1]"
				}

			}
, 			{
				"box" : 				{
					"id" : "obj-341",
					"maxclass" : "message",
					"numinlets" : 2,
					"numoutlets" : 1,
					"outlettype" : [ "" ],
					"patching_rect" : [ 771.062472084760657, 811.872155108451807, 51.0, 22.0 ],
					"text" : "getstate"
				}

			}
, 			{
				"box" : 				{
					"attr" : "name",
					"id" : "obj-342",
					"maxclass" : "attrui",
					"numinlets" : 1,
					"numoutlets" : 1,
					"outlettype" : [ "" ],
					"parameter_enable" : 0,
					"patching_rect" : [ 1233.107706934213638, 860.937655399814503, 201.461986064910889, 22.0 ]
				}

			}
, 			{
				"box" : 				{
					"angle" : 270.0,
					"bgcolor" : [ 1.0, 1.0, 1.0, 0.47 ],
					"id" : "obj-343",
					"maxclass" : "panel",
					"mode" : 0,
					"numinlets" : 1,
					"numoutlets" : 0,
					"patching_rect" : [ 335.985638350248337, 615.246657490730286, 1098.58405464887619, 532.059833228588104 ],
					"proportion" : 0.5
				}

			}
, 			{
				"box" : 				{
					"id" : "obj-25",
					"maxclass" : "comment",
					"numinlets" : 1,
					"numoutlets" : 0,
					"patching_rect" : [ 782.95966762304306, 175.0, 150.0, 20.0 ],
					"text" : "Not sure what this does"
				}

			}
, 			{
				"box" : 				{
					"id" : "obj-23",
					"maxclass" : "newobj",
					"numinlets" : 2,
					"numoutlets" : 2,
					"outlettype" : [ "setvalue", "int" ],
					"patching_rect" : [ 135.771298319101334, 143.609864413738251, 69.0, 22.0 ],
					"text" : "mc.target 0"
				}

			}
, 			{
				"box" : 				{
					"id" : "obj-22",
					"maxclass" : "newobj",
					"numinlets" : 1,
					"numoutlets" : 3,
					"outlettype" : [ "", "", "" ],
					"patching_rect" : [ 135.771298319101334, 104.0, 137.0, 22.0 ],
					"saved_object_attributes" : 					{
						"initial" : [ 0 ],
						"parameter_enable" : 0,
						"parameter_mappable" : 0
					}
,
					"text" : "pattr toggle-all @initial 0",
					"varname" : "toggle-all"
				}

			}
, 			{
				"box" : 				{
					"comment" : "",
					"id" : "obj-21",
					"index" : 1,
					"maxclass" : "outlet",
					"numinlets" : 1,
					"numoutlets" : 0,
					"patching_rect" : [ 83.852196614742283, 269.951928809881224, 30.0, 30.0 ]
				}

			}
, 			{
				"box" : 				{
					"id" : "obj-19",
					"maxclass" : "newobj",
					"numinlets" : 1,
					"numoutlets" : 1,
					"outlettype" : [ "" ],
					"patching_rect" : [ 737.529172718524933, 409.865484654903412, 103.0, 22.0 ],
					"text" : "prepend out-ease"
				}

			}
, 			{
				"box" : 				{
					"id" : "obj-20",
					"maxclass" : "newobj",
					"numinlets" : 1,
					"numoutlets" : 3,
					"outlettype" : [ "", "", "" ],
					"patching_rect" : [ 737.527010073661813, 380.267857561111441, 83.0, 22.0 ],
					"restore" : [ 0 ],
					"saved_object_attributes" : 					{
						"parameter_enable" : 0,
						"parameter_mappable" : 0
					}
,
					"text" : "pattr out-ease",
					"varname" : "out-ease"
				}

			}
, 			{
				"box" : 				{
					"id" : "obj-17",
					"maxclass" : "newobj",
					"numinlets" : 1,
					"numoutlets" : 1,
					"outlettype" : [ "" ],
					"patching_rect" : [ 734.529172718524933, 320.179382979869843, 109.0, 22.0 ],
					"text" : "prepend time-ease"
				}

			}
, 			{
				"box" : 				{
					"id" : "obj-18",
					"maxclass" : "newobj",
					"numinlets" : 1,
					"numoutlets" : 3,
					"outlettype" : [ "", "", "" ],
					"patching_rect" : [ 734.527010073661813, 290.581755886077872, 89.0, 22.0 ],
					"restore" : [ 0 ],
					"saved_object_attributes" : 					{
						"parameter_enable" : 0,
						"parameter_mappable" : 0
					}
,
					"text" : "pattr time-ease",
					"varname" : "time-ease"
				}

			}
, 			{
				"box" : 				{
					"id" : "obj-14",
					"maxclass" : "newobj",
					"numinlets" : 1,
					"numoutlets" : 1,
					"outlettype" : [ "" ],
					"patching_rect" : [ 702.244338760375967, 204.597627093791971, 94.0, 22.0 ],
					"text" : "prepend sustain",
					"varname" : "sustain[1]"
				}

			}
, 			{
				"box" : 				{
					"id" : "obj-15",
					"maxclass" : "newobj",
					"numinlets" : 1,
					"numoutlets" : 3,
					"outlettype" : [ "", "", "" ],
					"patching_rect" : [ 702.242176115512848, 175.0, 127.0, 22.0 ],
					"saved_object_attributes" : 					{
						"initial" : [ 1 ],
						"parameter_enable" : 0,
						"parameter_mappable" : 0
					}
,
					"text" : "pattr sustain @initial 1",
					"varname" : "sustain"
				}

			}
, 			{
				"box" : 				{
					"id" : "obj-12",
					"maxclass" : "newobj",
					"numinlets" : 1,
					"numoutlets" : 1,
					"outlettype" : [ "" ],
					"patching_rect" : [ 420.179386347532272, 354.260101616382599, 108.0, 22.0 ],
					"text" : "prepend resolution"
				}

			}
, 			{
				"box" : 				{
					"id" : "obj-13",
					"maxclass" : "newobj",
					"numinlets" : 1,
					"numoutlets" : 3,
					"outlettype" : [ "", "", "" ],
					"patching_rect" : [ 420.177223702669153, 324.662474522590628, 154.0, 22.0 ],
					"saved_object_attributes" : 					{
						"initial" : [ 128 ],
						"parameter_enable" : 0,
						"parameter_mappable" : 0
					}
,
					"text" : "pattr resolution @initial 128",
					"varname" : "resolution"
				}

			}
, 			{
				"box" : 				{
					"id" : "obj-10",
					"maxclass" : "newobj",
					"numinlets" : 1,
					"numoutlets" : 1,
					"outlettype" : [ "" ],
					"patching_rect" : [ 648.430515110492706, 112.107627093791962, 121.0, 22.0 ],
					"text" : "prepend time-deviate"
				}

			}
, 			{
				"box" : 				{
					"id" : "obj-11",
					"maxclass" : "newobj",
					"numinlets" : 1,
					"numoutlets" : 3,
					"outlettype" : [ "", "", "" ],
					"patching_rect" : [ 648.428352465629587, 82.510000000000005, 101.0, 22.0 ],
					"restore" : [ 0 ],
					"saved_object_attributes" : 					{
						"parameter_enable" : 0,
						"parameter_mappable" : 0
					}
,
					"text" : "pattr time-deviate",
					"varname" : "time-deviate"
				}

			}
, 			{
				"box" : 				{
					"id" : "obj-8",
					"maxclass" : "newobj",
					"numinlets" : 1,
					"numoutlets" : 1,
					"outlettype" : [ "" ],
					"patching_rect" : [ 521.076250731945038, 112.107627093791962, 116.0, 22.0 ],
					"text" : "prepend time-center"
				}

			}
, 			{
				"box" : 				{
					"id" : "obj-9",
					"maxclass" : "newobj",
					"numinlets" : 1,
					"numoutlets" : 3,
					"outlettype" : [ "", "", "" ],
					"patching_rect" : [ 521.074088087081918, 82.510000000000005, 96.0, 22.0 ],
					"restore" : [ 0 ],
					"saved_object_attributes" : 					{
						"parameter_enable" : 0,
						"parameter_mappable" : 0
					}
,
					"text" : "pattr time-center",
					"varname" : "time-center"
				}

			}
, 			{
				"box" : 				{
					"id" : "obj-5",
					"maxclass" : "newobj",
					"numinlets" : 1,
					"numoutlets" : 1,
					"outlettype" : [ "" ],
					"patching_rect" : [ 413.901359230279922, 112.107627093791962, 89.0, 22.0 ],
					"text" : "prepend center"
				}

			}
, 			{
				"box" : 				{
					"id" : "obj-7",
					"maxclass" : "newobj",
					"numinlets" : 1,
					"numoutlets" : 3,
					"outlettype" : [ "", "", "" ],
					"patching_rect" : [ 413.899196585416803, 82.510000000000005, 69.0, 22.0 ],
					"restore" : [ 0 ],
					"saved_object_attributes" : 					{
						"parameter_enable" : 0,
						"parameter_mappable" : 0
					}
,
					"text" : "pattr center",
					"varname" : "center"
				}

			}
, 			{
				"box" : 				{
					"id" : "obj-4",
					"maxclass" : "newobj",
					"numinlets" : 1,
					"numoutlets" : 1,
					"outlettype" : [ "" ],
					"patching_rect" : [ 302.242162644863129, 112.107627093791962, 95.0, 22.0 ],
					"text" : "prepend deviate"
				}

			}
, 			{
				"box" : 				{
					"id" : "obj-3",
					"maxclass" : "newobj",
					"numinlets" : 1,
					"numoutlets" : 3,
					"outlettype" : [ "", "", "" ],
					"patching_rect" : [ 302.240000000000009, 82.510000000000005, 75.0, 22.0 ],
					"restore" : [ 0 ],
					"saved_object_attributes" : 					{
						"parameter_enable" : 0,
						"parameter_mappable" : 0
					}
,
					"text" : "pattr deviate",
					"varname" : "deviate"
				}

			}
, 			{
				"box" : 				{
					"id" : "obj-16",
					"maxclass" : "newobj",
					"numinlets" : 2,
					"numoutlets" : 2,
					"outlettype" : [ "setvalue", "int" ],
					"patching_rect" : [ 199.0, 175.0, 69.0, 22.0 ],
					"text" : "mc.target 0"
				}

			}
, 			{
				"box" : 				{
					"id" : "obj-6",
					"maxclass" : "newobj",
					"numinlets" : 0,
					"numoutlets" : 1,
					"outlettype" : [ "" ],
					"patching_rect" : [ 84.0, 80.0, 146.0, 22.0 ],
					"text" : "r #1-metro-dev-toggle"
				}

			}
, 			{
				"box" : 				{
					"id" : "obj-34",
					"maxclass" : "newobj",
					"numinlets" : 2,
					"numoutlets" : 2,
					"outlettype" : [ "", "" ],
					"patching_rect" : [ 84.0, 204.0, 140.0, 22.0 ],
					"text" : "poly~ metro-deviation #2"
				}

			}
 ],
		"lines" : [ 			{
				"patchline" : 				{
					"destination" : [ "obj-16", 0 ],
					"source" : [ "obj-10", 0 ]
				}

			}
, 			{
				"patchline" : 				{
					"destination" : [ "obj-10", 0 ],
					"source" : [ "obj-11", 0 ]
				}

			}
, 			{
				"patchline" : 				{
					"destination" : [ "obj-16", 0 ],
					"source" : [ "obj-12", 0 ]
				}

			}
, 			{
				"patchline" : 				{
					"destination" : [ "obj-12", 0 ],
					"source" : [ "obj-13", 0 ]
				}

			}
, 			{
				"patchline" : 				{
					"destination" : [ "obj-16", 0 ],
					"source" : [ "obj-14", 0 ]
				}

			}
, 			{
				"patchline" : 				{
					"destination" : [ "obj-14", 0 ],
					"source" : [ "obj-15", 0 ]
				}

			}
, 			{
				"patchline" : 				{
					"destination" : [ "obj-34", 1 ],
					"source" : [ "obj-16", 0 ]
				}

			}
, 			{
				"patchline" : 				{
					"destination" : [ "obj-16", 0 ],
					"source" : [ "obj-17", 0 ]
				}

			}
, 			{
				"patchline" : 				{
					"destination" : [ "obj-17", 0 ],
					"source" : [ "obj-18", 0 ]
				}

			}
, 			{
				"patchline" : 				{
					"destination" : [ "obj-16", 0 ],
					"source" : [ "obj-19", 0 ]
				}

			}
, 			{
				"patchline" : 				{
					"destination" : [ "obj-19", 0 ],
					"source" : [ "obj-20", 0 ]
				}

			}
, 			{
				"patchline" : 				{
					"destination" : [ "obj-23", 0 ],
					"source" : [ "obj-22", 0 ]
				}

			}
, 			{
				"patchline" : 				{
					"destination" : [ "obj-34", 0 ],
					"source" : [ "obj-23", 0 ]
				}

			}
, 			{
				"patchline" : 				{
					"destination" : [ "obj-33", 0 ],
					"midpoints" : [ 1068.560500899553062, 841.308865973949423, 951.046377936601402, 841.308865973949423 ],
					"source" : [ "obj-27", 0 ]
				}

			}
, 			{
				"patchline" : 				{
					"destination" : [ "obj-27", 0 ],
					"source" : [ "obj-28", 0 ]
				}

			}
, 			{
				"patchline" : 				{
					"destination" : [ "obj-28", 0 ],
					"source" : [ "obj-29", 0 ]
				}

			}
, 			{
				"patchline" : 				{
					"destination" : [ "obj-4", 0 ],
					"source" : [ "obj-3", 0 ]
				}

			}
, 			{
				"patchline" : 				{
					"destination" : [ "obj-32", 0 ],
					"source" : [ "obj-30", 0 ]
				}

			}
, 			{
				"patchline" : 				{
					"destination" : [ "obj-33", 0 ],
					"source" : [ "obj-31", 0 ]
				}

			}
, 			{
				"patchline" : 				{
					"destination" : [ "obj-335", 1 ],
					"source" : [ "obj-310", 0 ]
				}

			}
, 			{
				"patchline" : 				{
					"destination" : [ "obj-325", 0 ],
					"midpoints" : [ 1230.607706934213638, 856.306902183200691, 1137.460650116205215, 856.306902183200691 ],
					"source" : [ "obj-311", 0 ]
				}

			}
, 			{
				"patchline" : 				{
					"destination" : [ "obj-342", 0 ],
					"source" : [ "obj-311", 1 ]
				}

			}
, 			{
				"patchline" : 				{
					"destination" : [ "obj-314", 0 ],
					"midpoints" : [ 930.926494518518439, 1072.951042826175581, 815.327174702882758, 1072.951042826175581 ],
					"source" : [ "obj-312", 0 ]
				}

			}
, 			{
				"patchline" : 				{
					"destination" : [ "obj-312", 0 ],
					"source" : [ "obj-313", 0 ]
				}

			}
, 			{
				"patchline" : 				{
					"destination" : [ "obj-316", 0 ],
					"source" : [ "obj-315", 0 ]
				}

			}
, 			{
				"patchline" : 				{
					"destination" : [ "obj-341", 0 ],
					"source" : [ "obj-316", 0 ]
				}

			}
, 			{
				"patchline" : 				{
					"destination" : [ "obj-320", 0 ],
					"source" : [ "obj-317", 1 ]
				}

			}
, 			{
				"patchline" : 				{
					"destination" : [ "obj-322", 0 ],
					"source" : [ "obj-318", 0 ]
				}

			}
, 			{
				"patchline" : 				{
					"destination" : [ "obj-320", 0 ],
					"midpoints" : [ 904.097225586175909, 975.040171593877858, 814.56980886578549, 975.040171593877858 ],
					"source" : [ "obj-319", 0 ]
				}

			}
, 			{
				"patchline" : 				{
					"destination" : [ "obj-31", 0 ],
					"source" : [ "obj-32", 0 ]
				}

			}
, 			{
				"patchline" : 				{
					"destination" : [ "obj-318", 0 ],
					"source" : [ "obj-320", 0 ]
				}

			}
, 			{
				"patchline" : 				{
					"destination" : [ "obj-319", 0 ],
					"source" : [ "obj-321", 0 ]
				}

			}
, 			{
				"patchline" : 				{
					"destination" : [ "obj-314", 0 ],
					"source" : [ "obj-322", 0 ]
				}

			}
, 			{
				"patchline" : 				{
					"destination" : [ "obj-311", 0 ],
					"source" : [ "obj-323", 0 ]
				}

			}
, 			{
				"patchline" : 				{
					"destination" : [ "obj-29", 0 ],
					"midpoints" : [ 646.877981761693945, 717.383014072719561, 1068.560500899553062, 717.383014072719561 ],
					"order" : 0,
					"source" : [ "obj-324", 0 ]
				}

			}
, 			{
				"patchline" : 				{
					"destination" : [ "obj-30", 0 ],
					"midpoints" : [ 646.877981761693945, 717.383014072719561, 951.046377936601402, 717.383014072719561 ],
					"order" : 1,
					"source" : [ "obj-324", 0 ]
				}

			}
, 			{
				"patchline" : 				{
					"destination" : [ "obj-315", 0 ],
					"midpoints" : [ 646.877981761693945, 736.217095424476611, 780.562472084760657, 736.217095424476611 ],
					"order" : 2,
					"source" : [ "obj-324", 0 ]
				}

			}
, 			{
				"patchline" : 				{
					"destination" : [ "obj-327", 0 ],
					"midpoints" : [ 646.877981761693945, 736.217095424476611, 489.564080069065085, 736.217095424476611 ],
					"order" : 4,
					"source" : [ "obj-324", 0 ]
				}

			}
, 			{
				"patchline" : 				{
					"destination" : [ "obj-329", 0 ],
					"midpoints" : [ 646.877981761693945, 736.217095424476611, 367.533643990755081, 736.217095424476611 ],
					"order" : 5,
					"source" : [ "obj-324", 0 ]
				}

			}
, 			{
				"patchline" : 				{
					"destination" : [ "obj-35", 0 ],
					"order" : 3,
					"source" : [ "obj-324", 0 ]
				}

			}
, 			{
				"patchline" : 				{
					"destination" : [ "obj-336", 0 ],
					"source" : [ "obj-326", 0 ]
				}

			}
, 			{
				"patchline" : 				{
					"destination" : [ "obj-328", 0 ],
					"source" : [ "obj-327", 0 ]
				}

			}
, 			{
				"patchline" : 				{
					"destination" : [ "obj-334", 0 ],
					"source" : [ "obj-328", 0 ]
				}

			}
, 			{
				"patchline" : 				{
					"destination" : [ "obj-338", 0 ],
					"source" : [ "obj-329", 0 ]
				}

			}
, 			{
				"patchline" : 				{
					"destination" : [ "obj-340", 0 ],
					"midpoints" : [ 489.564080069065085, 837.166854033470372, 367.533643990755081, 837.166854033470372 ],
					"source" : [ "obj-334", 0 ]
				}

			}
, 			{
				"patchline" : 				{
					"destination" : [ "obj-337", 0 ],
					"source" : [ "obj-336", 0 ]
				}

			}
, 			{
				"patchline" : 				{
					"destination" : [ "obj-335", 0 ],
					"source" : [ "obj-337", 1 ]
				}

			}
, 			{
				"patchline" : 				{
					"destination" : [ "obj-340", 0 ],
					"source" : [ "obj-338", 0 ]
				}

			}
, 			{
				"patchline" : 				{
					"destination" : [ "obj-21", 0 ],
					"source" : [ "obj-34", 0 ]
				}

			}
, 			{
				"patchline" : 				{
					"destination" : [ "obj-317", 0 ],
					"source" : [ "obj-341", 0 ]
				}

			}
, 			{
				"patchline" : 				{
					"destination" : [ "obj-339", 0 ],
					"source" : [ "obj-342", 0 ]
				}

			}
, 			{
				"patchline" : 				{
					"destination" : [ "obj-323", 0 ],
					"source" : [ "obj-344", 0 ]
				}

			}
, 			{
				"patchline" : 				{
					"destination" : [ "obj-326", 0 ],
					"source" : [ "obj-35", 0 ]
				}

			}
, 			{
				"patchline" : 				{
					"destination" : [ "obj-16", 0 ],
					"source" : [ "obj-4", 0 ]
				}

			}
, 			{
				"patchline" : 				{
					"destination" : [ "obj-16", 0 ],
					"source" : [ "obj-5", 0 ]
				}

			}
, 			{
				"patchline" : 				{
					"destination" : [ "obj-34", 0 ],
					"source" : [ "obj-6", 0 ]
				}

			}
, 			{
				"patchline" : 				{
					"destination" : [ "obj-5", 0 ],
					"source" : [ "obj-7", 0 ]
				}

			}
, 			{
				"patchline" : 				{
					"destination" : [ "obj-16", 0 ],
					"source" : [ "obj-8", 0 ]
				}

			}
, 			{
				"patchline" : 				{
					"destination" : [ "obj-8", 0 ],
					"source" : [ "obj-9", 0 ]
				}

			}
 ]
	}

}
