{
    "patcher": {
        "fileversion": 1,
        "appversion": {
            "major": 9,
            "minor": 1,
            "revision": 1,
            "architecture": "x64",
            "modernui": 1
        },
        "classnamespace": "box",
        "rect": [ 34.0, 77.0, 1639.0, 802.0 ],
        "boxes": [
            {
                "box": {
                    "id": "obj-132",
                    "maxclass": "button",
                    "numinlets": 1,
                    "numoutlets": 1,
                    "outlettype": [ "bang" ],
                    "parameter_enable": 0,
                    "patching_rect": [ 1015.5, 635.0, 24.0, 24.0 ]
                }
            },
            {
                "box": {
                    "id": "obj-117",
                    "maxclass": "newobj",
                    "numinlets": 1,
                    "numoutlets": 1,
                    "outlettype": [ "" ],
                    "patching_rect": [ 1097.0, 1157.0, 63.0, 22.0 ],
                    "text": "prepend 4"
                }
            },
            {
                "box": {
                    "id": "obj-118",
                    "maxclass": "newobj",
                    "numinlets": 1,
                    "numoutlets": 1,
                    "outlettype": [ "" ],
                    "patching_rect": [ 1055.0, 1133.0, 63.0, 22.0 ],
                    "text": "prepend 3"
                }
            },
            {
                "box": {
                    "id": "obj-119",
                    "maxclass": "newobj",
                    "numinlets": 1,
                    "numoutlets": 1,
                    "outlettype": [ "" ],
                    "patching_rect": [ 1010.0, 1157.0, 63.0, 22.0 ],
                    "text": "prepend 2"
                }
            },
            {
                "box": {
                    "id": "obj-120",
                    "maxclass": "newobj",
                    "numinlets": 1,
                    "numoutlets": 1,
                    "outlettype": [ "" ],
                    "patching_rect": [ 965.0, 1133.0, 63.0, 22.0 ],
                    "text": "prepend 1"
                }
            },
            {
                "box": {
                    "id": "obj-121",
                    "maxclass": "newobj",
                    "numinlets": 1,
                    "numoutlets": 0,
                    "patching_rect": [ 965.0, 1195.0, 135.0, 22.0 ],
                    "text": "s hooks/controller/recall"
                }
            },
            {
                "box": {
                    "id": "obj-122",
                    "maxclass": "message",
                    "numinlets": 2,
                    "numoutlets": 1,
                    "outlettype": [ "" ],
                    "patching_rect": [ 1097.0, 1057.0, 41.0, 22.0 ],
                    "text": "set $1"
                }
            },
            {
                "box": {
                    "id": "obj-123",
                    "maxclass": "live.toggle",
                    "numinlets": 1,
                    "numoutlets": 1,
                    "outlettype": [ "" ],
                    "parameter_enable": 1,
                    "patching_rect": [ 1097.0, 1084.0, 41.0, 41.0 ],
                    "saved_attribute_attributes": {
                        "valueof": {
                            "parameter_enum": [ "off", "on" ],
                            "parameter_longname": "live.toggle[6]",
                            "parameter_mmax": 1,
                            "parameter_modmode": 0,
                            "parameter_shortname": "live.toggle",
                            "parameter_type": 2
                        }
                    },
                    "varname": "live.toggle[4]"
                }
            },
            {
                "box": {
                    "id": "obj-124",
                    "maxclass": "message",
                    "numinlets": 2,
                    "numoutlets": 1,
                    "outlettype": [ "" ],
                    "patching_rect": [ 1055.0, 1057.0, 41.0, 22.0 ],
                    "text": "set $1"
                }
            },
            {
                "box": {
                    "id": "obj-126",
                    "maxclass": "live.toggle",
                    "numinlets": 1,
                    "numoutlets": 1,
                    "outlettype": [ "" ],
                    "parameter_enable": 1,
                    "patching_rect": [ 1055.0, 1084.0, 41.0, 41.0 ],
                    "saved_attribute_attributes": {
                        "valueof": {
                            "parameter_enum": [ "off", "on" ],
                            "parameter_longname": "live.toggle[7]",
                            "parameter_mmax": 1,
                            "parameter_modmode": 0,
                            "parameter_shortname": "live.toggle",
                            "parameter_type": 2
                        }
                    },
                    "varname": "live.toggle[5]"
                }
            },
            {
                "box": {
                    "id": "obj-127",
                    "maxclass": "message",
                    "numinlets": 2,
                    "numoutlets": 1,
                    "outlettype": [ "" ],
                    "patching_rect": [ 1010.0, 1057.0, 41.0, 22.0 ],
                    "text": "set $1"
                }
            },
            {
                "box": {
                    "id": "obj-128",
                    "maxclass": "live.toggle",
                    "numinlets": 1,
                    "numoutlets": 1,
                    "outlettype": [ "" ],
                    "parameter_enable": 1,
                    "patching_rect": [ 1010.0, 1084.0, 41.0, 41.0 ],
                    "saved_attribute_attributes": {
                        "valueof": {
                            "parameter_enum": [ "off", "on" ],
                            "parameter_longname": "live.toggle[8]",
                            "parameter_mmax": 1,
                            "parameter_modmode": 0,
                            "parameter_shortname": "live.toggle",
                            "parameter_type": 2
                        }
                    },
                    "varname": "live.toggle[6]"
                }
            },
            {
                "box": {
                    "id": "obj-129",
                    "maxclass": "message",
                    "numinlets": 2,
                    "numoutlets": 1,
                    "outlettype": [ "" ],
                    "patching_rect": [ 965.0, 1057.0, 41.0, 22.0 ],
                    "text": "set $1"
                }
            },
            {
                "box": {
                    "id": "obj-130",
                    "maxclass": "newobj",
                    "numinlets": 5,
                    "numoutlets": 5,
                    "outlettype": [ "", "", "", "", "" ],
                    "patching_rect": [ 965.0, 1020.0, 76.0, 22.0 ],
                    "text": "route 1 2 3 4"
                }
            },
            {
                "box": {
                    "id": "obj-131",
                    "maxclass": "live.toggle",
                    "numinlets": 1,
                    "numoutlets": 1,
                    "outlettype": [ "" ],
                    "parameter_enable": 1,
                    "patching_rect": [ 965.0, 1084.0, 41.0, 41.0 ],
                    "saved_attribute_attributes": {
                        "valueof": {
                            "parameter_enum": [ "off", "on" ],
                            "parameter_longname": "live.toggle[9]",
                            "parameter_mmax": 1,
                            "parameter_modmode": 0,
                            "parameter_shortname": "live.toggle",
                            "parameter_type": 2
                        }
                    },
                    "varname": "live.toggle[7]"
                }
            },
            {
                "box": {
                    "id": "obj-116",
                    "maxclass": "newobj",
                    "numinlets": 0,
                    "numoutlets": 1,
                    "outlettype": [ "" ],
                    "patching_rect": [ 965.0, 985.0, 153.0, 22.0 ],
                    "text": "r hooks/controller/recall-out"
                }
            },
            {
                "box": {
                    "id": "obj-115",
                    "maxclass": "button",
                    "numinlets": 1,
                    "numoutlets": 1,
                    "outlettype": [ "bang" ],
                    "parameter_enable": 0,
                    "patching_rect": [ 1404.0, 760.0, 24.0, 24.0 ]
                }
            },
            {
                "box": {
                    "id": "obj-112",
                    "maxclass": "newobj",
                    "numinlets": 1,
                    "numoutlets": 0,
                    "patching_rect": [ 1404.0, 799.0, 139.0, 22.0 ],
                    "text": "s hooks/controller/toggle"
                }
            },
            {
                "box": {
                    "id": "obj-107",
                    "maxclass": "message",
                    "numinlets": 2,
                    "numoutlets": 1,
                    "outlettype": [ "" ],
                    "patching_rect": [ 1316.0, 786.0, 41.0, 22.0 ],
                    "text": "set $1"
                }
            },
            {
                "box": {
                    "id": "obj-108",
                    "maxclass": "message",
                    "numinlets": 2,
                    "numoutlets": 1,
                    "outlettype": [ "" ],
                    "patching_rect": [ 1274.0, 786.0, 41.0, 22.0 ],
                    "text": "set $1"
                }
            },
            {
                "box": {
                    "id": "obj-109",
                    "maxclass": "message",
                    "numinlets": 2,
                    "numoutlets": 1,
                    "outlettype": [ "" ],
                    "patching_rect": [ 1229.0, 786.0, 41.0, 22.0 ],
                    "text": "set $1"
                }
            },
            {
                "box": {
                    "id": "obj-110",
                    "maxclass": "message",
                    "numinlets": 2,
                    "numoutlets": 1,
                    "outlettype": [ "" ],
                    "patching_rect": [ 1184.0, 786.0, 41.0, 22.0 ],
                    "text": "set $1"
                }
            },
            {
                "box": {
                    "id": "obj-111",
                    "maxclass": "newobj",
                    "numinlets": 5,
                    "numoutlets": 5,
                    "outlettype": [ "", "", "", "", "" ],
                    "patching_rect": [ 1184.0, 749.0, 76.0, 22.0 ],
                    "text": "route 1 2 3 4"
                }
            },
            {
                "box": {
                    "id": "obj-106",
                    "maxclass": "newobj",
                    "numinlets": 0,
                    "numoutlets": 1,
                    "outlettype": [ "" ],
                    "patching_rect": [ 1184.0, 709.0, 171.0, 22.0 ],
                    "text": "r hooks/controller/rotary/output"
                }
            },
            {
                "box": {
                    "id": "obj-105",
                    "maxclass": "newobj",
                    "numinlets": 1,
                    "numoutlets": 1,
                    "outlettype": [ "" ],
                    "patching_rect": [ 1110.0, 907.0, 63.0, 22.0 ],
                    "text": "prepend 4"
                }
            },
            {
                "box": {
                    "id": "obj-104",
                    "maxclass": "newobj",
                    "numinlets": 1,
                    "numoutlets": 1,
                    "outlettype": [ "" ],
                    "patching_rect": [ 1068.0, 883.0, 63.0, 22.0 ],
                    "text": "prepend 3"
                }
            },
            {
                "box": {
                    "id": "obj-103",
                    "maxclass": "newobj",
                    "numinlets": 1,
                    "numoutlets": 1,
                    "outlettype": [ "" ],
                    "patching_rect": [ 1023.0, 907.0, 63.0, 22.0 ],
                    "text": "prepend 2"
                }
            },
            {
                "box": {
                    "id": "obj-102",
                    "maxclass": "newobj",
                    "numinlets": 1,
                    "numoutlets": 1,
                    "outlettype": [ "" ],
                    "patching_rect": [ 978.0, 883.0, 63.0, 22.0 ],
                    "text": "prepend 1"
                }
            },
            {
                "box": {
                    "id": "obj-100",
                    "maxclass": "newobj",
                    "numinlets": 1,
                    "numoutlets": 0,
                    "patching_rect": [ 978.0, 945.0, 168.0, 22.0 ],
                    "text": "s hooks/controller/toggle/input"
                }
            },
            {
                "box": {
                    "id": "obj-98",
                    "maxclass": "message",
                    "numinlets": 2,
                    "numoutlets": 1,
                    "outlettype": [ "" ],
                    "patching_rect": [ 1110.0, 807.0, 41.0, 22.0 ],
                    "text": "set $1"
                }
            },
            {
                "box": {
                    "id": "obj-99",
                    "maxclass": "live.toggle",
                    "numinlets": 1,
                    "numoutlets": 1,
                    "outlettype": [ "" ],
                    "parameter_enable": 1,
                    "patching_rect": [ 1110.0, 834.0, 41.0, 41.0 ],
                    "saved_attribute_attributes": {
                        "valueof": {
                            "parameter_enum": [ "off", "on" ],
                            "parameter_longname": "live.toggle[5]",
                            "parameter_mmax": 1,
                            "parameter_modmode": 0,
                            "parameter_shortname": "live.toggle",
                            "parameter_type": 2
                        }
                    },
                    "varname": "live.toggle[3]"
                }
            },
            {
                "box": {
                    "id": "obj-96",
                    "maxclass": "message",
                    "numinlets": 2,
                    "numoutlets": 1,
                    "outlettype": [ "" ],
                    "patching_rect": [ 1068.0, 807.0, 41.0, 22.0 ],
                    "text": "set $1"
                }
            },
            {
                "box": {
                    "id": "obj-97",
                    "maxclass": "live.toggle",
                    "numinlets": 1,
                    "numoutlets": 1,
                    "outlettype": [ "" ],
                    "parameter_enable": 1,
                    "patching_rect": [ 1068.0, 834.0, 41.0, 41.0 ],
                    "saved_attribute_attributes": {
                        "valueof": {
                            "parameter_enum": [ "off", "on" ],
                            "parameter_longname": "live.toggle[4]",
                            "parameter_mmax": 1,
                            "parameter_modmode": 0,
                            "parameter_shortname": "live.toggle",
                            "parameter_type": 2
                        }
                    },
                    "varname": "live.toggle[2]"
                }
            },
            {
                "box": {
                    "id": "obj-94",
                    "maxclass": "message",
                    "numinlets": 2,
                    "numoutlets": 1,
                    "outlettype": [ "" ],
                    "patching_rect": [ 1023.0, 807.0, 41.0, 22.0 ],
                    "text": "set $1"
                }
            },
            {
                "box": {
                    "id": "obj-95",
                    "maxclass": "live.toggle",
                    "numinlets": 1,
                    "numoutlets": 1,
                    "outlettype": [ "" ],
                    "parameter_enable": 1,
                    "patching_rect": [ 1023.0, 834.0, 41.0, 41.0 ],
                    "saved_attribute_attributes": {
                        "valueof": {
                            "parameter_enum": [ "off", "on" ],
                            "parameter_longname": "live.toggle[3]",
                            "parameter_mmax": 1,
                            "parameter_modmode": 0,
                            "parameter_shortname": "live.toggle",
                            "parameter_type": 2
                        }
                    },
                    "varname": "live.toggle[1]"
                }
            },
            {
                "box": {
                    "id": "obj-92",
                    "maxclass": "message",
                    "numinlets": 2,
                    "numoutlets": 1,
                    "outlettype": [ "" ],
                    "patching_rect": [ 978.0, 807.0, 41.0, 22.0 ],
                    "text": "set $1"
                }
            },
            {
                "box": {
                    "id": "obj-88",
                    "maxclass": "newobj",
                    "numinlets": 5,
                    "numoutlets": 5,
                    "outlettype": [ "", "", "", "", "" ],
                    "patching_rect": [ 978.0, 770.0, 76.0, 22.0 ],
                    "text": "route 1 2 3 4"
                }
            },
            {
                "box": {
                    "id": "obj-87",
                    "maxclass": "newobj",
                    "numinlets": 0,
                    "numoutlets": 1,
                    "outlettype": [ "" ],
                    "patching_rect": [ 978.0, 732.0, 173.0, 22.0 ],
                    "text": "r hooks/controller/toggle/output"
                }
            },
            {
                "box": {
                    "id": "obj-85",
                    "maxclass": "newobj",
                    "numinlets": 1,
                    "numoutlets": 1,
                    "outlettype": [ "" ],
                    "patching_rect": [ 1400.0, 875.0, 63.0, 22.0 ],
                    "text": "prepend 4"
                }
            },
            {
                "box": {
                    "id": "obj-84",
                    "maxclass": "newobj",
                    "numinlets": 1,
                    "numoutlets": 1,
                    "outlettype": [ "" ],
                    "patching_rect": [ 1330.0, 875.0, 63.0, 22.0 ],
                    "text": "prepend 3"
                }
            },
            {
                "box": {
                    "id": "obj-83",
                    "maxclass": "newobj",
                    "numinlets": 1,
                    "numoutlets": 1,
                    "outlettype": [ "" ],
                    "patching_rect": [ 1256.0, 875.0, 63.0, 22.0 ],
                    "text": "prepend 2"
                }
            },
            {
                "box": {
                    "id": "obj-78",
                    "maxclass": "live.toggle",
                    "numinlets": 1,
                    "numoutlets": 1,
                    "outlettype": [ "" ],
                    "parameter_enable": 1,
                    "patching_rect": [ 978.0, 834.0, 41.0, 41.0 ],
                    "saved_attribute_attributes": {
                        "valueof": {
                            "parameter_enum": [ "off", "on" ],
                            "parameter_longname": "live.toggle",
                            "parameter_mmax": 1,
                            "parameter_modmode": 0,
                            "parameter_shortname": "live.toggle",
                            "parameter_type": 2
                        }
                    },
                    "varname": "live.toggle"
                }
            },
            {
                "box": {
                    "id": "obj-77",
                    "maxclass": "live.dial",
                    "numinlets": 1,
                    "numoutlets": 2,
                    "outlettype": [ "", "float" ],
                    "parameter_enable": 1,
                    "patching_rect": [ 1328.0, 816.0, 41.0, 48.0 ],
                    "saved_attribute_attributes": {
                        "valueof": {
                            "parameter_longname": "live.dial[4]",
                            "parameter_modmode": 3,
                            "parameter_shortname": "live.dial[1]",
                            "parameter_type": 0,
                            "parameter_unitstyle": 0
                        }
                    },
                    "varname": "live.dial[4]"
                }
            },
            {
                "box": {
                    "id": "obj-76",
                    "maxclass": "live.dial",
                    "numinlets": 1,
                    "numoutlets": 2,
                    "outlettype": [ "", "float" ],
                    "parameter_enable": 1,
                    "patching_rect": [ 1281.0, 816.0, 41.0, 48.0 ],
                    "saved_attribute_attributes": {
                        "valueof": {
                            "parameter_longname": "live.dial[3]",
                            "parameter_modmode": 3,
                            "parameter_shortname": "live.dial[1]",
                            "parameter_type": 0,
                            "parameter_unitstyle": 0
                        }
                    },
                    "varname": "live.dial[3]"
                }
            },
            {
                "box": {
                    "id": "obj-75",
                    "maxclass": "live.dial",
                    "numinlets": 1,
                    "numoutlets": 2,
                    "outlettype": [ "", "float" ],
                    "parameter_enable": 1,
                    "patching_rect": [ 1229.0, 816.0, 41.0, 48.0 ],
                    "saved_attribute_attributes": {
                        "valueof": {
                            "parameter_longname": "live.dial[2]",
                            "parameter_modmode": 3,
                            "parameter_shortname": "live.dial[1]",
                            "parameter_type": 0,
                            "parameter_unitstyle": 0
                        }
                    },
                    "varname": "live.dial[2]"
                }
            },
            {
                "box": {
                    "id": "obj-74",
                    "maxclass": "live.dial",
                    "numinlets": 1,
                    "numoutlets": 2,
                    "outlettype": [ "", "float" ],
                    "parameter_enable": 1,
                    "patching_rect": [ 1184.0, 816.0, 41.0, 48.0 ],
                    "saved_attribute_attributes": {
                        "valueof": {
                            "parameter_longname": "live.dial[1]",
                            "parameter_modmode": 3,
                            "parameter_shortname": "live.dial[1]",
                            "parameter_type": 0,
                            "parameter_unitstyle": 0
                        }
                    },
                    "varname": "live.dial[1]"
                }
            },
            {
                "box": {
                    "id": "obj-73",
                    "maxclass": "newobj",
                    "numinlets": 1,
                    "numoutlets": 0,
                    "patching_rect": [ 1216.0, 204.0, 133.0, 22.0 ],
                    "text": "s apc/lower-buttons-out"
                }
            },
            {
                "box": {
                    "id": "obj-72",
                    "maxclass": "newobj",
                    "numinlets": 0,
                    "numoutlets": 1,
                    "outlettype": [ "" ],
                    "patching_rect": [ 1216.0, 173.0, 173.0, 22.0 ],
                    "text": "r hooks/controller/toggle/output"
                }
            },
            {
                "box": {
                    "id": "obj-69",
                    "maxclass": "newobj",
                    "numinlets": 2,
                    "numoutlets": 1,
                    "outlettype": [ "" ],
                    "patching_rect": [ 852.0, 180.0, 32.0, 22.0 ],
                    "text": "gate"
                }
            },
            {
                "box": {
                    "id": "obj-70",
                    "maxclass": "newobj",
                    "numinlets": 1,
                    "numoutlets": 2,
                    "outlettype": [ "int", "int" ],
                    "patching_rect": [ 852.0, 149.0, 59.0, 22.0 ],
                    "text": "unpack i i"
                }
            },
            {
                "box": {
                    "id": "obj-71",
                    "maxclass": "newobj",
                    "numinlets": 0,
                    "numoutlets": 1,
                    "outlettype": [ "" ],
                    "patching_rect": [ 852.0, 117.0, 124.0, 22.0 ],
                    "text": "r apc/lower-buttons-in"
                }
            },
            {
                "box": {
                    "id": "obj-68",
                    "maxclass": "newobj",
                    "numinlets": 1,
                    "numoutlets": 0,
                    "patching_rect": [ 1031.0, 211.0, 94.0, 22.0 ],
                    "text": "s apc/matrix-out"
                }
            },
            {
                "box": {
                    "id": "obj-67",
                    "maxclass": "newobj",
                    "numinlets": 0,
                    "numoutlets": 1,
                    "outlettype": [ "" ],
                    "patching_rect": [ 1031.0, 180.0, 153.0, 22.0 ],
                    "text": "r hooks/controller/recall-out"
                }
            },
            {
                "box": {
                    "id": "obj-60",
                    "maxclass": "newobj",
                    "numinlets": 0,
                    "numoutlets": 1,
                    "outlettype": [ "" ],
                    "patching_rect": [ 1031.0, 105.0, 171.0, 22.0 ],
                    "text": "r hooks/controller/rotary/output"
                }
            },
            {
                "box": {
                    "id": "obj-125",
                    "maxclass": "newobj",
                    "numinlets": 0,
                    "numoutlets": 1,
                    "outlettype": [ "" ],
                    "patching_rect": [ 1361.0, 76.0, 163.0, 22.0 ],
                    "text": "r hooks/controller/recall-done"
                }
            },
            {
                "box": {
                    "id": "obj-56",
                    "maxclass": "newobj",
                    "numinlets": 2,
                    "numoutlets": 2,
                    "outlettype": [ "bang", "" ],
                    "patching_rect": [ 1216.0, 103.0, 34.0, 22.0 ],
                    "text": "sel 1"
                }
            },
            {
                "box": {
                    "id": "obj-53",
                    "maxclass": "newobj",
                    "numinlets": 0,
                    "numoutlets": 1,
                    "outlettype": [ "" ],
                    "patching_rect": [ 1216.0, 76.0, 134.0, 22.0 ],
                    "text": "r hooks/controller/ready"
                }
            },
            {
                "box": {
                    "id": "obj-47",
                    "maxclass": "newobj",
                    "numinlets": 1,
                    "numoutlets": 4,
                    "outlettype": [ "", "", "", "" ],
                    "patching_rect": [ 1031.0, 140.0, 92.0, 22.0 ],
                    "saved_object_attributes": {
                        "embed": 0,
                        "precision": 6
                    },
                    "text": "coll 32ro/values"
                }
            },
            {
                "box": {
                    "id": "obj-39",
                    "maxclass": "newobj",
                    "numinlets": 1,
                    "numoutlets": 0,
                    "patching_rect": [ 1216.0, 142.0, 112.0, 22.0 ],
                    "text": "s 32ro/update-knob"
                }
            },
            {
                "box": {
                    "id": "obj-8",
                    "maxclass": "newobj",
                    "numinlets": 1,
                    "numoutlets": 1,
                    "outlettype": [ "" ],
                    "patcher": {
                        "fileversion": 1,
                        "appversion": {
                            "major": 9,
                            "minor": 1,
                            "revision": 1,
                            "architecture": "x64",
                            "modernui": 1
                        },
                        "classnamespace": "box",
                        "rect": [ 59.0, 107.0, 1000.0, 730.0 ],
                        "boxes": [
                            {
                                "box": {
                                    "id": "obj-210",
                                    "maxclass": "newobj",
                                    "numinlets": 1,
                                    "numoutlets": 1,
                                    "outlettype": [ "int" ],
                                    "patching_rect": [ 286.75778836011887, 195.55555242300034, 22.0, 22.0 ],
                                    "text": "t 1"
                                }
                            },
                            {
                                "box": {
                                    "id": "obj-209",
                                    "maxclass": "newobj",
                                    "numinlets": 2,
                                    "numoutlets": 1,
                                    "outlettype": [ "bang" ],
                                    "patching_rect": [ 218.0427353978157, 195.55555242300034, 61.0, 22.0 ],
                                    "text": "delay 100"
                                }
                            },
                            {
                                "box": {
                                    "id": "obj-208",
                                    "maxclass": "newobj",
                                    "numinlets": 1,
                                    "numoutlets": 2,
                                    "outlettype": [ "int", "bang" ],
                                    "patching_rect": [ 168.0, 195.55555242300034, 32.0, 22.0 ],
                                    "text": "t 0 b"
                                }
                            },
                            {
                                "box": {
                                    "id": "obj-207",
                                    "linecount": 2,
                                    "maxclass": "comment",
                                    "numinlets": 1,
                                    "numoutlets": 0,
                                    "patching_rect": [ 173.5427353978157, 147.34146451950073, 150.0, 34.0 ],
                                    "text": "Debounce Too Fast Presses"
                                }
                            },
                            {
                                "box": {
                                    "id": "obj-204",
                                    "maxclass": "newobj",
                                    "numinlets": 2,
                                    "numoutlets": 1,
                                    "outlettype": [ "" ],
                                    "patching_rect": [ 81.66666015258784, 195.55555242300034, 52.0, 22.0 ],
                                    "text": "gate 1 1"
                                }
                            },
                            {
                                "box": {
                                    "comment": "",
                                    "id": "obj-2",
                                    "index": 1,
                                    "maxclass": "inlet",
                                    "numinlets": 0,
                                    "numoutlets": 1,
                                    "outlettype": [ "int" ],
                                    "patching_rect": [ 114.66666015258784, 40.000002270629885, 30.0, 30.0 ]
                                }
                            },
                            {
                                "box": {
                                    "comment": "",
                                    "id": "obj-4",
                                    "index": 1,
                                    "maxclass": "outlet",
                                    "numinlets": 1,
                                    "numoutlets": 0,
                                    "patching_rect": [ 81.66666015258784, 289.55555242300034, 30.0, 30.0 ]
                                }
                            }
                        ],
                        "lines": [
                            {
                                "patchline": {
                                    "destination": [ "obj-204", 1 ],
                                    "source": [ "obj-2", 0 ]
                                }
                            },
                            {
                                "patchline": {
                                    "destination": [ "obj-208", 0 ],
                                    "midpoints": [ 91.16666015258784, 227.55555242300034, 144.3333335518837, 227.55555242300034, 144.3333335518837, 185.55555242300034, 177.5, 185.55555242300034 ],
                                    "order": 0,
                                    "source": [ "obj-204", 0 ]
                                }
                            },
                            {
                                "patchline": {
                                    "destination": [ "obj-4", 0 ],
                                    "order": 1,
                                    "source": [ "obj-204", 0 ]
                                }
                            },
                            {
                                "patchline": {
                                    "destination": [ "obj-204", 0 ],
                                    "midpoints": [ 177.5, 227.55555242300034, 144.3333335518837, 227.55555242300034, 144.3333335518837, 185.55555242300034, 91.16666015258784, 185.55555242300034 ],
                                    "source": [ "obj-208", 0 ]
                                }
                            },
                            {
                                "patchline": {
                                    "destination": [ "obj-209", 0 ],
                                    "midpoints": [ 190.5, 227.55555242300034, 211.37889418005943, 227.55555242300034, 211.37889418005943, 185.55555242300034, 227.5427353978157, 185.55555242300034 ],
                                    "source": [ "obj-208", 1 ]
                                }
                            },
                            {
                                "patchline": {
                                    "destination": [ "obj-210", 0 ],
                                    "midpoints": [ 227.5427353978157, 227.55555242300034, 283.3817426562309, 227.55555242300034, 283.3817426562309, 185.55555242300034, 296.25778836011887, 185.55555242300034 ],
                                    "source": [ "obj-209", 0 ]
                                }
                            },
                            {
                                "patchline": {
                                    "destination": [ "obj-204", 0 ],
                                    "midpoints": [ 296.25778836011887, 227.55555242300034, 316.3048166334629, 227.55555242300034, 316.3048166334629, 185.55555242300034, 91.16666015258784, 185.55555242300034 ],
                                    "source": [ "obj-210", 0 ]
                                }
                            }
                        ]
                    },
                    "patching_rect": [ 7.0, 181.0, 71.0, 22.0 ],
                    "text": "p debounce"
                }
            },
            {
                "box": {
                    "id": "obj-43",
                    "linecount": 3,
                    "maxclass": "comment",
                    "numinlets": 1,
                    "numoutlets": 0,
                    "patching_rect": [ 1147.0, 392.0, 192.0, 48.0 ],
                    "text": "Edit mode restores default value every time the preset is recalled\nMust Reset after changing this"
                }
            },
            {
                "box": {
                    "id": "obj-40",
                    "maxclass": "toggle",
                    "numinlets": 1,
                    "numoutlets": 1,
                    "outlettype": [ "int" ],
                    "parameter_enable": 0,
                    "patching_rect": [ 1121.0, 412.0, 24.0, 24.0 ]
                }
            },
            {
                "box": {
                    "id": "obj-37",
                    "maxclass": "newobj",
                    "numinlets": 1,
                    "numoutlets": 0,
                    "patching_rect": [ 1121.0, 442.0, 159.0, 22.0 ],
                    "text": "s hooks/controller/edit-mode"
                }
            },
            {
                "box": {
                    "id": "obj-28",
                    "maxclass": "toggle",
                    "numinlets": 1,
                    "numoutlets": 1,
                    "outlettype": [ "int" ],
                    "parameter_enable": 0,
                    "patching_rect": [ 979.5, 635.0, 24.0, 24.0 ]
                }
            },
            {
                "box": {
                    "id": "obj-186",
                    "maxclass": "newobj",
                    "numinlets": 1,
                    "numoutlets": 0,
                    "patching_rect": [ 979.5, 672.0, 183.0, 22.0 ],
                    "text": "s hooks/controller/params-toggle"
                }
            },
            {
                "box": {
                    "id": "obj-7",
                    "maxclass": "newobj",
                    "numinlets": 0,
                    "numoutlets": 1,
                    "outlettype": [ "" ],
                    "patching_rect": [ 1216.0, 235.0, 69.0, 22.0 ],
                    "text": "r 32ro/knob"
                }
            },
            {
                "box": {
                    "id": "obj-4",
                    "maxclass": "newobj",
                    "numinlets": 1,
                    "numoutlets": 0,
                    "patching_rect": [ 1216.0, 271.0, 166.0, 22.0 ],
                    "text": "s hooks/controller/rotary/input"
                }
            },
            {
                "box": {
                    "id": "obj-3",
                    "maxclass": "newobj",
                    "numinlets": 1,
                    "numoutlets": 0,
                    "patching_rect": [ 1035.0, 76.0, 131.0, 22.0 ],
                    "text": "s hooks/controller/write"
                }
            },
            {
                "box": {
                    "id": "obj-22",
                    "maxclass": "newobj",
                    "numinlets": 2,
                    "numoutlets": 1,
                    "outlettype": [ "" ],
                    "patching_rect": [ 570.3333333333334, 187.0, 32.0, 22.0 ],
                    "text": "gate"
                }
            },
            {
                "box": {
                    "id": "obj-21",
                    "maxclass": "newobj",
                    "numinlets": 1,
                    "numoutlets": 2,
                    "outlettype": [ "int", "int" ],
                    "patching_rect": [ 570.3333333333334, 156.0, 59.0, 22.0 ],
                    "text": "unpack i i"
                }
            },
            {
                "box": {
                    "id": "obj-2",
                    "maxclass": "newobj",
                    "numinlets": 0,
                    "numoutlets": 1,
                    "outlettype": [ "" ],
                    "patching_rect": [ 570.3333333333334, 124.0, 77.0, 22.0 ],
                    "text": "r 32ro/trigger"
                }
            },
            {
                "box": {
                    "id": "obj-50",
                    "maxclass": "toggle",
                    "numinlets": 1,
                    "numoutlets": 1,
                    "outlettype": [ "int" ],
                    "parameter_enable": 0,
                    "patching_rect": [ 684.0, 66.0, 24.0, 24.0 ]
                }
            },
            {
                "box": {
                    "id": "obj-48",
                    "maxclass": "newobj",
                    "numinlets": 1,
                    "numoutlets": 0,
                    "patching_rect": [ 684.0, 113.0, 78.0, 22.0 ],
                    "text": "s 32ro/toggle"
                }
            },
            {
                "box": {
                    "id": "obj-46",
                    "maxclass": "newobj",
                    "numinlets": 0,
                    "numoutlets": 0,
                    "patching_rect": [ 1105.0, 16.0, 33.0, 22.0 ],
                    "text": "32ro"
                }
            },
            {
                "box": {
                    "id": "obj-45",
                    "maxclass": "newobj",
                    "numinlets": 2,
                    "numoutlets": 2,
                    "outlettype": [ "bang", "" ],
                    "patching_rect": [ 7.0, 76.0, 34.0, 22.0 ],
                    "text": "sel 1"
                }
            },
            {
                "box": {
                    "id": "obj-44",
                    "maxclass": "newobj",
                    "numinlets": 2,
                    "numoutlets": 2,
                    "outlettype": [ "bang", "" ],
                    "patching_rect": [ 74.0, 76.0, 34.0, 22.0 ],
                    "text": "sel 1"
                }
            },
            {
                "box": {
                    "id": "obj-42",
                    "maxclass": "message",
                    "numinlets": 2,
                    "numoutlets": 1,
                    "outlettype": [ "" ],
                    "patching_rect": [ 74.0, 106.0, 29.5, 22.0 ],
                    "text": "-1"
                }
            },
            {
                "box": {
                    "id": "obj-41",
                    "maxclass": "message",
                    "numinlets": 2,
                    "numoutlets": 1,
                    "outlettype": [ "" ],
                    "patching_rect": [ 7.0, 106.0, 29.5, 22.0 ],
                    "text": "1"
                }
            },
            {
                "box": {
                    "id": "obj-38",
                    "maxclass": "number",
                    "numinlets": 1,
                    "numoutlets": 2,
                    "outlettype": [ "", "bang" ],
                    "parameter_enable": 0,
                    "patching_rect": [ 134.0, 106.0, 50.0, 22.0 ]
                }
            },
            {
                "box": {
                    "id": "obj-36",
                    "maxclass": "newobj",
                    "numinlets": 0,
                    "numoutlets": 1,
                    "outlettype": [ "" ],
                    "patching_rect": [ 134.0, 45.0, 163.0, 22.0 ],
                    "text": "r hooks/controller/bank-index"
                }
            },
            {
                "box": {
                    "id": "obj-33",
                    "maxclass": "newobj",
                    "numinlets": 2,
                    "numoutlets": 1,
                    "outlettype": [ "int" ],
                    "patching_rect": [ 7.0, 146.0, 29.5, 22.0 ],
                    "text": "+ 0"
                }
            },
            {
                "box": {
                    "id": "obj-27",
                    "maxclass": "newobj",
                    "numinlets": 2,
                    "numoutlets": 1,
                    "outlettype": [ "int" ],
                    "patching_rect": [ 74.0, 146.0, 29.5, 22.0 ],
                    "text": "+ 0"
                }
            },
            {
                "box": {
                    "id": "obj-26",
                    "maxclass": "newobj",
                    "numinlets": 0,
                    "numoutlets": 1,
                    "outlettype": [ "" ],
                    "patching_rect": [ 74.0, 45.0, 47.0, 22.0 ],
                    "text": "r apc/B"
                }
            },
            {
                "box": {
                    "id": "obj-24",
                    "maxclass": "newobj",
                    "numinlets": 0,
                    "numoutlets": 1,
                    "outlettype": [ "" ],
                    "patching_rect": [ 7.0, 45.0, 47.0, 22.0 ],
                    "text": "r apc/A"
                }
            },
            {
                "box": {
                    "id": "obj-23",
                    "maxclass": "newobj",
                    "numinlets": 1,
                    "numoutlets": 1,
                    "outlettype": [ "multichannelsignal" ],
                    "patching_rect": [ 1229.0, 547.0, 169.0, 22.0 ],
                    "text": "example-synth-hooked hello 2",
                    "varname": "example-synth-hooked[2]"
                }
            },
            {
                "box": {
                    "id": "obj-19",
                    "maxclass": "newobj",
                    "numinlets": 1,
                    "numoutlets": 1,
                    "outlettype": [ "multichannelsignal" ],
                    "patching_rect": [ 1060.0, 547.0, 153.0, 22.0 ],
                    "text": "example-synth-hooked hi 2",
                    "varname": "example-synth-hooked[1]"
                }
            },
            {
                "box": {
                    "id": "obj-15",
                    "maxclass": "newobj",
                    "numinlets": 1,
                    "numoutlets": 3,
                    "outlettype": [ "", "int", "int" ],
                    "patching_rect": [ 289.6666666666667, 165.0, 48.0, 22.0 ],
                    "text": "change"
                }
            },
            {
                "box": {
                    "id": "obj-13",
                    "maxclass": "newobj",
                    "numinlets": 2,
                    "numoutlets": 1,
                    "outlettype": [ "int" ],
                    "patching_rect": [ 288.6666666666667, 191.0, 29.5, 22.0 ],
                    "text": "+ 1"
                }
            },
            {
                "box": {
                    "id": "obj-10",
                    "maxclass": "message",
                    "numinlets": 2,
                    "numoutlets": 1,
                    "outlettype": [ "" ],
                    "patching_rect": [ 289.6666666666667, 134.0, 29.5, 22.0 ],
                    "text": "$1"
                }
            },
            {
                "box": {
                    "id": "obj-5",
                    "maxclass": "newobj",
                    "numinlets": 0,
                    "numoutlets": 1,
                    "outlettype": [ "" ],
                    "patching_rect": [ 289.6666666666667, 98.0, 85.0, 22.0 ],
                    "text": "r apc/matrix-in"
                }
            },
            {
                "box": {
                    "id": "obj-1",
                    "maxclass": "newobj",
                    "numinlets": 0,
                    "numoutlets": 0,
                    "patching_rect": [ 1046.0, 16.0, 50.0, 22.0 ],
                    "text": "apcmini"
                }
            },
            {
                "box": {
                    "bgmode": 0,
                    "border": 0,
                    "clickthrough": 0,
                    "enablehscroll": 0,
                    "enablevscroll": 0,
                    "id": "obj-55",
                    "lockeddragscroll": 0,
                    "lockedsize": 0,
                    "maxclass": "bpatcher",
                    "name": "hooks.controllereditor.maxpat",
                    "numinlets": 4,
                    "numoutlets": 1,
                    "offset": [ 0.0, 0.0 ],
                    "outlettype": [ "" ],
                    "patching_rect": [ 7.0, 235.0, 864.0, 791.0 ],
                    "varname": "hooks.controllereditor",
                    "viewvisibility": 1
                }
            },
            {
                "box": {
                    "id": "obj-35",
                    "maxclass": "mc.ezdac~",
                    "numinlets": 1,
                    "numoutlets": 0,
                    "patching_rect": [ 890.5, 782.0, 45.0, 45.0 ]
                }
            },
            {
                "box": {
                    "id": "obj-34",
                    "maxclass": "gain~",
                    "multichannelvariant": 1,
                    "numinlets": 1,
                    "numoutlets": 2,
                    "outlettype": [ "multichannelsignal", "" ],
                    "parameter_enable": 0,
                    "patching_rect": [ 890.5, 635.0, 22.0, 140.0 ]
                }
            },
            {
                "box": {
                    "id": "obj-31",
                    "maxclass": "newobj",
                    "numinlets": 1,
                    "numoutlets": 1,
                    "outlettype": [ "multichannelsignal" ],
                    "patching_rect": [ 889.5, 547.0, 163.0, 22.0 ],
                    "text": "example-synth-hooked test 2",
                    "varname": "example-synth-hooked"
                }
            },
            {
                "box": {
                    "id": "obj-20",
                    "maxclass": "comment",
                    "numinlets": 1,
                    "numoutlets": 0,
                    "patching_rect": [ 889.5, 413.0, 150.0, 20.0 ],
                    "text": "0"
                }
            },
            {
                "box": {
                    "id": "obj-18",
                    "maxclass": "newobj",
                    "numinlets": 0,
                    "numoutlets": 1,
                    "outlettype": [ "" ],
                    "patching_rect": [ 889.5, 353.0, 164.0, 22.0 ],
                    "text": "r hooks/controller/bank-name"
                }
            },
            {
                "box": {
                    "format": 6,
                    "id": "obj-12",
                    "maxclass": "flonum",
                    "numinlets": 1,
                    "numoutlets": 2,
                    "outlettype": [ "", "bang" ],
                    "parameter_enable": 0,
                    "patching_rect": [ 889.5, 481.0, 50.0, 22.0 ]
                }
            },
            {
                "box": {
                    "id": "obj-25",
                    "maxclass": "newobj",
                    "numinlets": 0,
                    "numoutlets": 1,
                    "outlettype": [ "" ],
                    "patching_rect": [ 889.5, 442.0, 177.0, 22.0 ],
                    "text": "r hooks/controller/rotary/1/value"
                }
            },
            {
                "box": {
                    "id": "obj-14",
                    "maxclass": "newobj",
                    "numinlets": 1,
                    "numoutlets": 1,
                    "outlettype": [ "" ],
                    "patching_rect": [ 1188.0, 875.0, 63.0, 22.0 ],
                    "text": "prepend 1"
                }
            },
            {
                "box": {
                    "id": "obj-11",
                    "maxclass": "newobj",
                    "numinlets": 0,
                    "numoutlets": 0,
                    "patching_rect": [ 1147.0, 16.0, 147.0, 22.0 ],
                    "text": "hooks.controller 64 32 8 5",
                    "varname": "hooks.controller"
                }
            },
            {
                "box": {
                    "id": "obj-9",
                    "maxclass": "newobj",
                    "numinlets": 1,
                    "numoutlets": 0,
                    "patching_rect": [ 1188.0, 925.0, 166.0, 22.0 ],
                    "text": "s hooks/controller/rotary/input"
                }
            },
            {
                "box": {
                    "id": "obj-30",
                    "maxclass": "message",
                    "numinlets": 2,
                    "numoutlets": 1,
                    "outlettype": [ "" ],
                    "patching_rect": [ 889.5, 384.0, 50.0, 22.0 ],
                    "text": "set $1"
                }
            }
        ],
        "lines": [
            {
                "patchline": {
                    "destination": [ "obj-15", 0 ],
                    "source": [ "obj-10", 0 ]
                }
            },
            {
                "patchline": {
                    "destination": [ "obj-100", 0 ],
                    "midpoints": [ 987.5, 925.5, 987.5, 925.5 ],
                    "source": [ "obj-102", 0 ]
                }
            },
            {
                "patchline": {
                    "destination": [ "obj-100", 0 ],
                    "midpoints": [ 1032.5, 937.5, 987.5, 937.5 ],
                    "source": [ "obj-103", 0 ]
                }
            },
            {
                "patchline": {
                    "destination": [ "obj-100", 0 ],
                    "midpoints": [ 1077.5, 925.5, 987.5, 925.5 ],
                    "source": [ "obj-104", 0 ]
                }
            },
            {
                "patchline": {
                    "destination": [ "obj-100", 0 ],
                    "midpoints": [ 1119.5, 937.5, 987.5, 937.5 ],
                    "source": [ "obj-105", 0 ]
                }
            },
            {
                "patchline": {
                    "destination": [ "obj-111", 0 ],
                    "source": [ "obj-106", 0 ]
                }
            },
            {
                "patchline": {
                    "destination": [ "obj-77", 0 ],
                    "source": [ "obj-107", 0 ]
                }
            },
            {
                "patchline": {
                    "destination": [ "obj-76", 0 ],
                    "source": [ "obj-108", 0 ]
                }
            },
            {
                "patchline": {
                    "destination": [ "obj-75", 0 ],
                    "source": [ "obj-109", 0 ]
                }
            },
            {
                "patchline": {
                    "destination": [ "obj-74", 0 ],
                    "source": [ "obj-110", 0 ]
                }
            },
            {
                "patchline": {
                    "destination": [ "obj-107", 0 ],
                    "midpoints": [ 1236.25, 778.5, 1325.5, 778.5 ],
                    "source": [ "obj-111", 3 ]
                }
            },
            {
                "patchline": {
                    "destination": [ "obj-108", 0 ],
                    "midpoints": [ 1222.0, 778.5, 1283.5, 778.5 ],
                    "source": [ "obj-111", 2 ]
                }
            },
            {
                "patchline": {
                    "destination": [ "obj-109", 0 ],
                    "midpoints": [ 1207.75, 778.5, 1238.5, 778.5 ],
                    "source": [ "obj-111", 1 ]
                }
            },
            {
                "patchline": {
                    "destination": [ "obj-110", 0 ],
                    "midpoints": [ 1193.5, 778.5, 1193.5, 778.5 ],
                    "source": [ "obj-111", 0 ]
                }
            },
            {
                "patchline": {
                    "destination": [ "obj-112", 0 ],
                    "source": [ "obj-115", 0 ]
                }
            },
            {
                "patchline": {
                    "destination": [ "obj-130", 0 ],
                    "source": [ "obj-116", 0 ]
                }
            },
            {
                "patchline": {
                    "destination": [ "obj-121", 0 ],
                    "midpoints": [ 1106.5, 1187.5, 974.5, 1187.5 ],
                    "source": [ "obj-117", 0 ]
                }
            },
            {
                "patchline": {
                    "destination": [ "obj-121", 0 ],
                    "midpoints": [ 1064.5, 1175.5, 974.5, 1175.5 ],
                    "source": [ "obj-118", 0 ]
                }
            },
            {
                "patchline": {
                    "destination": [ "obj-121", 0 ],
                    "midpoints": [ 1019.5, 1187.5, 974.5, 1187.5 ],
                    "source": [ "obj-119", 0 ]
                }
            },
            {
                "patchline": {
                    "destination": [ "obj-121", 0 ],
                    "midpoints": [ 974.5, 1175.5, 974.5, 1175.5 ],
                    "source": [ "obj-120", 0 ]
                }
            },
            {
                "patchline": {
                    "destination": [ "obj-123", 0 ],
                    "source": [ "obj-122", 0 ]
                }
            },
            {
                "patchline": {
                    "destination": [ "obj-117", 0 ],
                    "source": [ "obj-123", 0 ]
                }
            },
            {
                "patchline": {
                    "destination": [ "obj-126", 0 ],
                    "source": [ "obj-124", 0 ]
                }
            },
            {
                "patchline": {
                    "destination": [ "obj-39", 0 ],
                    "midpoints": [ 1370.5, 131.5, 1225.5, 131.5 ],
                    "source": [ "obj-125", 0 ]
                }
            },
            {
                "patchline": {
                    "destination": [ "obj-118", 0 ],
                    "source": [ "obj-126", 0 ]
                }
            },
            {
                "patchline": {
                    "destination": [ "obj-128", 0 ],
                    "source": [ "obj-127", 0 ]
                }
            },
            {
                "patchline": {
                    "destination": [ "obj-119", 0 ],
                    "source": [ "obj-128", 0 ]
                }
            },
            {
                "patchline": {
                    "destination": [ "obj-131", 0 ],
                    "source": [ "obj-129", 0 ]
                }
            },
            {
                "patchline": {
                    "destination": [ "obj-55", 1 ],
                    "source": [ "obj-13", 0 ]
                }
            },
            {
                "patchline": {
                    "destination": [ "obj-122", 0 ],
                    "midpoints": [ 1017.25, 1049.5, 1106.5, 1049.5 ],
                    "source": [ "obj-130", 3 ]
                }
            },
            {
                "patchline": {
                    "destination": [ "obj-124", 0 ],
                    "midpoints": [ 1003.0, 1049.5, 1064.5, 1049.5 ],
                    "source": [ "obj-130", 2 ]
                }
            },
            {
                "patchline": {
                    "destination": [ "obj-127", 0 ],
                    "midpoints": [ 988.75, 1049.5, 1019.5, 1049.5 ],
                    "source": [ "obj-130", 1 ]
                }
            },
            {
                "patchline": {
                    "destination": [ "obj-129", 0 ],
                    "midpoints": [ 974.5, 1049.5, 974.5, 1049.5 ],
                    "source": [ "obj-130", 0 ]
                }
            },
            {
                "patchline": {
                    "destination": [ "obj-120", 0 ],
                    "source": [ "obj-131", 0 ]
                }
            },
            {
                "patchline": {
                    "destination": [ "obj-186", 0 ],
                    "source": [ "obj-132", 0 ]
                }
            },
            {
                "patchline": {
                    "destination": [ "obj-9", 0 ],
                    "midpoints": [ 1197.5, 911.0, 1197.5, 911.0 ],
                    "source": [ "obj-14", 0 ]
                }
            },
            {
                "patchline": {
                    "destination": [ "obj-13", 0 ],
                    "source": [ "obj-15", 0 ]
                }
            },
            {
                "patchline": {
                    "destination": [ "obj-30", 0 ],
                    "source": [ "obj-18", 0 ]
                }
            },
            {
                "patchline": {
                    "destination": [ "obj-34", 0 ],
                    "midpoints": [ 1069.5, 602.0, 900.0, 602.0 ],
                    "source": [ "obj-19", 0 ]
                }
            },
            {
                "patchline": {
                    "destination": [ "obj-21", 0 ],
                    "source": [ "obj-2", 0 ]
                }
            },
            {
                "patchline": {
                    "destination": [ "obj-22", 0 ],
                    "source": [ "obj-21", 1 ]
                }
            },
            {
                "patchline": {
                    "destination": [ "obj-22", 1 ],
                    "source": [ "obj-21", 0 ]
                }
            },
            {
                "patchline": {
                    "destination": [ "obj-55", 2 ],
                    "source": [ "obj-22", 0 ]
                }
            },
            {
                "patchline": {
                    "destination": [ "obj-34", 0 ],
                    "midpoints": [ 1238.5, 602.0, 900.0, 602.0 ],
                    "source": [ "obj-23", 0 ]
                }
            },
            {
                "patchline": {
                    "destination": [ "obj-45", 0 ],
                    "source": [ "obj-24", 0 ]
                }
            },
            {
                "patchline": {
                    "destination": [ "obj-12", 0 ],
                    "source": [ "obj-25", 0 ]
                }
            },
            {
                "patchline": {
                    "destination": [ "obj-44", 0 ],
                    "source": [ "obj-26", 0 ]
                }
            },
            {
                "patchline": {
                    "destination": [ "obj-8", 0 ],
                    "source": [ "obj-27", 0 ]
                }
            },
            {
                "patchline": {
                    "destination": [ "obj-186", 0 ],
                    "source": [ "obj-28", 0 ]
                }
            },
            {
                "patchline": {
                    "destination": [ "obj-20", 0 ],
                    "source": [ "obj-30", 0 ]
                }
            },
            {
                "patchline": {
                    "destination": [ "obj-34", 0 ],
                    "midpoints": [ 899.0, 602.0, 900.0, 602.0 ],
                    "source": [ "obj-31", 0 ]
                }
            },
            {
                "patchline": {
                    "destination": [ "obj-8", 0 ],
                    "source": [ "obj-33", 0 ]
                }
            },
            {
                "patchline": {
                    "destination": [ "obj-35", 0 ],
                    "source": [ "obj-34", 0 ]
                }
            },
            {
                "patchline": {
                    "destination": [ "obj-38", 0 ],
                    "source": [ "obj-36", 0 ]
                }
            },
            {
                "patchline": {
                    "destination": [ "obj-27", 1 ],
                    "order": 0,
                    "source": [ "obj-38", 0 ]
                }
            },
            {
                "patchline": {
                    "destination": [ "obj-33", 1 ],
                    "order": 1,
                    "source": [ "obj-38", 0 ]
                }
            },
            {
                "patchline": {
                    "destination": [ "obj-37", 0 ],
                    "source": [ "obj-40", 0 ]
                }
            },
            {
                "patchline": {
                    "destination": [ "obj-33", 0 ],
                    "source": [ "obj-41", 0 ]
                }
            },
            {
                "patchline": {
                    "destination": [ "obj-27", 0 ],
                    "source": [ "obj-42", 0 ]
                }
            },
            {
                "patchline": {
                    "destination": [ "obj-42", 0 ],
                    "source": [ "obj-44", 0 ]
                }
            },
            {
                "patchline": {
                    "destination": [ "obj-41", 0 ],
                    "source": [ "obj-45", 0 ]
                }
            },
            {
                "patchline": {
                    "destination": [ "obj-10", 0 ],
                    "source": [ "obj-5", 0 ]
                }
            },
            {
                "patchline": {
                    "destination": [ "obj-48", 0 ],
                    "source": [ "obj-50", 0 ]
                }
            },
            {
                "patchline": {
                    "destination": [ "obj-56", 0 ],
                    "source": [ "obj-53", 0 ]
                }
            },
            {
                "patchline": {
                    "destination": [ "obj-39", 0 ],
                    "source": [ "obj-56", 0 ]
                }
            },
            {
                "patchline": {
                    "destination": [ "obj-47", 0 ],
                    "source": [ "obj-60", 0 ]
                }
            },
            {
                "patchline": {
                    "destination": [ "obj-68", 0 ],
                    "source": [ "obj-67", 0 ]
                }
            },
            {
                "patchline": {
                    "destination": [ "obj-55", 3 ],
                    "source": [ "obj-69", 0 ]
                }
            },
            {
                "patchline": {
                    "destination": [ "obj-4", 0 ],
                    "source": [ "obj-7", 0 ]
                }
            },
            {
                "patchline": {
                    "destination": [ "obj-69", 0 ],
                    "source": [ "obj-70", 1 ]
                }
            },
            {
                "patchline": {
                    "destination": [ "obj-69", 1 ],
                    "source": [ "obj-70", 0 ]
                }
            },
            {
                "patchline": {
                    "destination": [ "obj-70", 0 ],
                    "source": [ "obj-71", 0 ]
                }
            },
            {
                "patchline": {
                    "destination": [ "obj-73", 0 ],
                    "source": [ "obj-72", 0 ]
                }
            },
            {
                "patchline": {
                    "destination": [ "obj-14", 0 ],
                    "source": [ "obj-74", 0 ]
                }
            },
            {
                "patchline": {
                    "destination": [ "obj-83", 0 ],
                    "source": [ "obj-75", 0 ]
                }
            },
            {
                "patchline": {
                    "destination": [ "obj-84", 0 ],
                    "source": [ "obj-76", 0 ]
                }
            },
            {
                "patchline": {
                    "destination": [ "obj-85", 0 ],
                    "source": [ "obj-77", 0 ]
                }
            },
            {
                "patchline": {
                    "destination": [ "obj-102", 0 ],
                    "source": [ "obj-78", 0 ]
                }
            },
            {
                "patchline": {
                    "destination": [ "obj-55", 0 ],
                    "source": [ "obj-8", 0 ]
                }
            },
            {
                "patchline": {
                    "destination": [ "obj-9", 0 ],
                    "midpoints": [ 1265.5, 911.0, 1197.5, 911.0 ],
                    "source": [ "obj-83", 0 ]
                }
            },
            {
                "patchline": {
                    "destination": [ "obj-9", 0 ],
                    "midpoints": [ 1339.5, 911.0, 1197.5, 911.0 ],
                    "source": [ "obj-84", 0 ]
                }
            },
            {
                "patchline": {
                    "destination": [ "obj-9", 0 ],
                    "midpoints": [ 1409.5, 911.0, 1197.5, 911.0 ],
                    "source": [ "obj-85", 0 ]
                }
            },
            {
                "patchline": {
                    "destination": [ "obj-88", 0 ],
                    "source": [ "obj-87", 0 ]
                }
            },
            {
                "patchline": {
                    "destination": [ "obj-92", 0 ],
                    "midpoints": [ 987.5, 799.5, 987.5, 799.5 ],
                    "source": [ "obj-88", 0 ]
                }
            },
            {
                "patchline": {
                    "destination": [ "obj-94", 0 ],
                    "midpoints": [ 1001.75, 799.5, 1032.5, 799.5 ],
                    "source": [ "obj-88", 1 ]
                }
            },
            {
                "patchline": {
                    "destination": [ "obj-96", 0 ],
                    "midpoints": [ 1016.0, 799.5, 1077.5, 799.5 ],
                    "source": [ "obj-88", 2 ]
                }
            },
            {
                "patchline": {
                    "destination": [ "obj-98", 0 ],
                    "midpoints": [ 1030.25, 799.5, 1119.5, 799.5 ],
                    "source": [ "obj-88", 3 ]
                }
            },
            {
                "patchline": {
                    "destination": [ "obj-78", 0 ],
                    "source": [ "obj-92", 0 ]
                }
            },
            {
                "patchline": {
                    "destination": [ "obj-95", 0 ],
                    "source": [ "obj-94", 0 ]
                }
            },
            {
                "patchline": {
                    "destination": [ "obj-103", 0 ],
                    "source": [ "obj-95", 0 ]
                }
            },
            {
                "patchline": {
                    "destination": [ "obj-97", 0 ],
                    "source": [ "obj-96", 0 ]
                }
            },
            {
                "patchline": {
                    "destination": [ "obj-104", 0 ],
                    "source": [ "obj-97", 0 ]
                }
            },
            {
                "patchline": {
                    "destination": [ "obj-99", 0 ],
                    "source": [ "obj-98", 0 ]
                }
            },
            {
                "patchline": {
                    "destination": [ "obj-105", 0 ],
                    "source": [ "obj-99", 0 ]
                }
            }
        ],
        "parameters": {
            "obj-123": [ "live.toggle[6]", "live.toggle", 0 ],
            "obj-126": [ "live.toggle[7]", "live.toggle", 0 ],
            "obj-128": [ "live.toggle[8]", "live.toggle", 0 ],
            "obj-131": [ "live.toggle[9]", "live.toggle", 0 ],
            "obj-74": [ "live.dial[1]", "live.dial[1]", 0 ],
            "obj-75": [ "live.dial[2]", "live.dial[1]", 0 ],
            "obj-76": [ "live.dial[3]", "live.dial[1]", 0 ],
            "obj-77": [ "live.dial[4]", "live.dial[1]", 0 ],
            "obj-78": [ "live.toggle", "live.toggle", 0 ],
            "obj-95": [ "live.toggle[3]", "live.toggle", 0 ],
            "obj-97": [ "live.toggle[4]", "live.toggle", 0 ],
            "obj-99": [ "live.toggle[5]", "live.toggle", 0 ],
            "inherited_shortname": 1
        },
        "autosave": 0
    }
}