{
    "patcher": {
        "fileversion": 1,
        "appversion": {
            "major": 9,
            "minor": 1,
            "revision": 1,
            "architecture": "x64",
            "modernui": 1
        },
        "classnamespace": "box",
        "rect": [ 134.0, 84.0, 1231.0, 787.0 ],
        "boxes": [
            {
                "box": {
                    "id": "obj-60",
                    "linecount": 2,
                    "maxclass": "comment",
                    "numinlets": 1,
                    "numoutlets": 0,
                    "patching_rect": [ 290.5, 367.0, 150.0, 34.0 ],
                    "text": "Need new line character to prevent timeout"
                }
            },
            {
                "box": {
                    "id": "obj-54",
                    "maxclass": "message",
                    "numinlets": 2,
                    "numoutlets": 1,
                    "outlettype": [ "" ],
                    "patching_rect": [ 361.0, 480.0, 50.0, 22.0 ],
                    "text": "read 0"
                }
            },
            {
                "box": {
                    "id": "obj-49",
                    "maxclass": "message",
                    "numinlets": 2,
                    "numoutlets": 1,
                    "outlettype": [ "" ],
                    "patching_rect": [ 257.5, 343.0, 39.0, 22.0 ],
                    "text": "13 10"
                }
            },
            {
                "box": {
                    "id": "obj-42",
                    "maxclass": "newobj",
                    "numinlets": 1,
                    "numoutlets": 0,
                    "patching_rect": [ 421.0, 789.0, 160.0, 22.0 ],
                    "text": "poly~ 32ro-button-sender 32"
                }
            },
            {
                "box": {
                    "id": "obj-24",
                    "maxclass": "newobj",
                    "numinlets": 1,
                    "numoutlets": 1,
                    "outlettype": [ "" ],
                    "patching_rect": [ 564.0, 142.0, 59.0, 22.0 ],
                    "text": "append 0"
                }
            },
            {
                "box": {
                    "id": "obj-14",
                    "maxclass": "newobj",
                    "numinlets": 2,
                    "numoutlets": 3,
                    "outlettype": [ "bang", "bang", "int" ],
                    "patching_rect": [ 528.0, 113.0, 43.0, 22.0 ],
                    "text": "Uzi 32"
                }
            },
            {
                "box": {
                    "id": "obj-7",
                    "maxclass": "newobj",
                    "numinlets": 1,
                    "numoutlets": 1,
                    "outlettype": [ "bang" ],
                    "patching_rect": [ 528.0, 80.0, 58.0, 22.0 ],
                    "text": "loadbang"
                }
            },
            {
                "box": {
                    "id": "obj-40",
                    "maxclass": "newobj",
                    "numinlets": 0,
                    "numoutlets": 1,
                    "outlettype": [ "" ],
                    "patching_rect": [ 372.0, 37.0, 110.0, 22.0 ],
                    "text": "r 32ro/update-knob"
                }
            },
            {
                "box": {
                    "id": "obj-39",
                    "maxclass": "message",
                    "numinlets": 2,
                    "numoutlets": 1,
                    "outlettype": [ "" ],
                    "patching_rect": [ 372.0, 94.0, 39.0, 22.0 ],
                    "text": "dump"
                }
            },
            {
                "box": {
                    "id": "obj-23",
                    "maxclass": "newobj",
                    "numinlets": 2,
                    "numoutlets": 2,
                    "outlettype": [ "", "" ],
                    "patching_rect": [ 372.0, 188.0, 81.0, 22.0 ],
                    "text": "zl.group 1000"
                }
            },
            {
                "box": {
                    "id": "obj-22",
                    "maxclass": "newobj",
                    "numinlets": 3,
                    "numoutlets": 3,
                    "outlettype": [ "bang", "bang", "" ],
                    "patching_rect": [ 158.0, 312.0, 44.0, 22.0 ],
                    "text": "sel 0 1"
                }
            },
            {
                "box": {
                    "id": "obj-21",
                    "maxclass": "newobj",
                    "numinlets": 0,
                    "numoutlets": 1,
                    "outlettype": [ "" ],
                    "patching_rect": [ 411.0, 229.0, 76.0, 22.0 ],
                    "text": "r 32ro/toggle"
                }
            },
            {
                "box": {
                    "id": "obj-19",
                    "maxclass": "newobj",
                    "numinlets": 1,
                    "numoutlets": 0,
                    "patching_rect": [ 306.0, 726.0, 79.0, 22.0 ],
                    "text": "s 32ro/trigger"
                }
            },
            {
                "box": {
                    "id": "obj-17",
                    "maxclass": "newobj",
                    "numinlets": 1,
                    "numoutlets": 0,
                    "patching_rect": [ 247.0, 752.0, 71.0, 22.0 ],
                    "text": "s 32ro/knob"
                }
            },
            {
                "box": {
                    "id": "obj-10",
                    "maxclass": "newobj",
                    "numinlets": 1,
                    "numoutlets": 4,
                    "outlettype": [ "", "", "", "" ],
                    "patching_rect": [ 372.0, 138.0, 92.0, 22.0 ],
                    "saved_object_attributes": {
                        "embed": 0,
                        "precision": 6
                    },
                    "text": "coll 32ro/values"
                }
            },
            {
                "box": {
                    "id": "obj-12",
                    "maxclass": "button",
                    "numinlets": 1,
                    "numoutlets": 1,
                    "outlettype": [ "bang" ],
                    "parameter_enable": 0,
                    "patching_rect": [ 278.0, 112.0, 24.0, 24.0 ]
                }
            },
            {
                "box": {
                    "id": "obj-6",
                    "maxclass": "newobj",
                    "numinlets": 2,
                    "numoutlets": 1,
                    "outlettype": [ "" ],
                    "patching_rect": [ 278.0, 222.0, 42.0, 22.0 ],
                    "text": "thresh"
                }
            },
            {
                "box": {
                    "id": "obj-5",
                    "maxclass": "newobj",
                    "numinlets": 2,
                    "numoutlets": 1,
                    "outlettype": [ "" ],
                    "patching_rect": [ 278.0, 188.0, 73.0, 22.0 ],
                    "text": "random 255"
                }
            },
            {
                "box": {
                    "id": "obj-2",
                    "maxclass": "newobj",
                    "numinlets": 2,
                    "numoutlets": 3,
                    "outlettype": [ "bang", "bang", "int" ],
                    "patching_rect": [ 278.0, 156.0, 43.0, 22.0 ],
                    "text": "Uzi 32"
                }
            },
            {
                "box": {
                    "id": "obj-38",
                    "maxclass": "newobj",
                    "numinlets": 3,
                    "numoutlets": 3,
                    "outlettype": [ "", "", "" ],
                    "patching_rect": [ 247.0, 661.0, 119.0, 22.0 ],
                    "text": "route encoder toggle"
                }
            },
            {
                "box": {
                    "id": "obj-35",
                    "maxclass": "newobj",
                    "numinlets": 2,
                    "numoutlets": 1,
                    "outlettype": [ "" ],
                    "patching_rect": [ 247.0, 634.0, 66.0, 22.0 ],
                    "text": "string.tolist"
                }
            },
            {
                "box": {
                    "id": "obj-34",
                    "maxclass": "newobj",
                    "numinlets": 1,
                    "numoutlets": 3,
                    "outlettype": [ "bang", "bang", "" ],
                    "patching_rect": [ 247.0, 271.0, 40.0, 22.0 ],
                    "text": "t b b l"
                }
            },
            {
                "box": {
                    "fontname": "Arial",
                    "fontsize": 12.0,
                    "id": "obj-33",
                    "maxclass": "newobj",
                    "numinlets": 1,
                    "numoutlets": 1,
                    "outlettype": [ "int" ],
                    "patching_rect": [ 306.0, 319.0, 35.0, 22.0 ],
                    "text": "spell"
                }
            },
            {
                "box": {
                    "id": "obj-26",
                    "maxclass": "message",
                    "numinlets": 2,
                    "numoutlets": 1,
                    "outlettype": [ "" ],
                    "patching_rect": [ 153.0, 202.0, 92.0, 22.0 ],
                    "text": "10 120 139 150"
                }
            },
            {
                "box": {
                    "id": "obj-18",
                    "maxclass": "message",
                    "numinlets": 2,
                    "numoutlets": 1,
                    "outlettype": [ "" ],
                    "patching_rect": [ 197.0, 343.0, 35.0, 22.0 ],
                    "text": "open"
                }
            },
            {
                "box": {
                    "id": "obj-15",
                    "maxclass": "button",
                    "numinlets": 1,
                    "numoutlets": 1,
                    "outlettype": [ "bang" ],
                    "parameter_enable": 0,
                    "patching_rect": [ 208.0, 609.0, 24.0, 24.0 ]
                }
            },
            {
                "box": {
                    "id": "obj-13",
                    "maxclass": "toggle",
                    "numinlets": 1,
                    "numoutlets": 1,
                    "outlettype": [ "int" ],
                    "parameter_enable": 0,
                    "patching_rect": [ 411.0, 270.0, 24.0, 24.0 ]
                }
            },
            {
                "box": {
                    "id": "obj-11",
                    "maxclass": "newobj",
                    "numinlets": 2,
                    "numoutlets": 1,
                    "outlettype": [ "bang" ],
                    "patching_rect": [ 411.0, 343.0, 63.0, 22.0 ],
                    "text": "qmetro 10"
                }
            },
            {
                "box": {
                    "id": "obj-9",
                    "maxclass": "message",
                    "numinlets": 2,
                    "numoutlets": 1,
                    "outlettype": [ "" ],
                    "patching_rect": [ 278.0, 598.0, 175.0, 22.0 ],
                    "text": "\"encoder 3 27\""
                }
            },
            {
                "box": {
                    "id": "obj-20",
                    "maxclass": "newobj",
                    "numinlets": 3,
                    "numoutlets": 1,
                    "outlettype": [ "int" ],
                    "patching_rect": [ 247.0, 537.0, 46.0, 22.0 ],
                    "style": "newobjBlue",
                    "text": "itoa"
                }
            },
            {
                "box": {
                    "id": "obj-8",
                    "maxclass": "newobj",
                    "numinlets": 2,
                    "numoutlets": 2,
                    "outlettype": [ "", "" ],
                    "patching_rect": [ 247.0, 509.0, 81.0, 22.0 ],
                    "text": "zl group 1000"
                }
            },
            {
                "box": {
                    "id": "obj-4",
                    "maxclass": "newobj",
                    "numinlets": 3,
                    "numoutlets": 3,
                    "outlettype": [ "bang", "bang", "" ],
                    "patching_rect": [ 247.0, 465.0, 58.0, 22.0 ],
                    "text": "sel 13 10"
                }
            },
            {
                "box": {
                    "id": "obj-3",
                    "maxclass": "message",
                    "numinlets": 2,
                    "numoutlets": 1,
                    "outlettype": [ "" ],
                    "patching_rect": [ 195.0, 447.0, 50.0, 22.0 ],
                    "text": "10"
                }
            },
            {
                "box": {
                    "id": "obj-1",
                    "maxclass": "newobj",
                    "numinlets": 1,
                    "numoutlets": 2,
                    "outlettype": [ "int", "" ],
                    "patching_rect": [ 247.0, 423.0, 89.0, 22.0 ],
                    "text": "serial c 115200"
                }
            },
            {
                "box": {
                    "id": "obj-16",
                    "maxclass": "message",
                    "numinlets": 2,
                    "numoutlets": 1,
                    "outlettype": [ "" ],
                    "patching_rect": [ 158.0, 343.0, 37.0, 22.0 ],
                    "text": "close"
                }
            },
            {
                "box": {
                    "id": "obj-25",
                    "maxclass": "message",
                    "numinlets": 2,
                    "numoutlets": 1,
                    "outlettype": [ "" ],
                    "patching_rect": [ 414.0, 108.0, 35.0, 22.0 ],
                    "text": "clear"
                }
            }
        ],
        "lines": [
            {
                "patchline": {
                    "destination": [ "obj-3", 1 ],
                    "order": 1,
                    "source": [ "obj-1", 0 ]
                }
            },
            {
                "patchline": {
                    "destination": [ "obj-4", 0 ],
                    "order": 0,
                    "source": [ "obj-1", 0 ]
                }
            },
            {
                "patchline": {
                    "destination": [ "obj-54", 1 ],
                    "source": [ "obj-1", 1 ]
                }
            },
            {
                "patchline": {
                    "destination": [ "obj-23", 0 ],
                    "source": [ "obj-10", 3 ]
                }
            },
            {
                "patchline": {
                    "destination": [ "obj-23", 0 ],
                    "source": [ "obj-10", 0 ]
                }
            },
            {
                "patchline": {
                    "destination": [ "obj-1", 0 ],
                    "midpoints": [ 420.5, 384.0, 256.5, 384.0 ],
                    "source": [ "obj-11", 0 ]
                }
            },
            {
                "patchline": {
                    "destination": [ "obj-2", 0 ],
                    "source": [ "obj-12", 0 ]
                }
            },
            {
                "patchline": {
                    "destination": [ "obj-11", 0 ],
                    "order": 0,
                    "source": [ "obj-13", 0 ]
                }
            },
            {
                "patchline": {
                    "destination": [ "obj-22", 0 ],
                    "midpoints": [ 420.5, 300.5, 167.5, 300.5 ],
                    "order": 1,
                    "source": [ "obj-13", 0 ]
                }
            },
            {
                "patchline": {
                    "destination": [ "obj-24", 0 ],
                    "source": [ "obj-14", 2 ]
                }
            },
            {
                "patchline": {
                    "destination": [ "obj-1", 0 ],
                    "midpoints": [ 167.5, 394.0, 256.5, 394.0 ],
                    "source": [ "obj-16", 0 ]
                }
            },
            {
                "patchline": {
                    "destination": [ "obj-1", 0 ],
                    "midpoints": [ 206.5, 394.0, 256.5, 394.0 ],
                    "source": [ "obj-18", 0 ]
                }
            },
            {
                "patchline": {
                    "destination": [ "obj-5", 0 ],
                    "source": [ "obj-2", 0 ]
                }
            },
            {
                "patchline": {
                    "destination": [ "obj-15", 0 ],
                    "order": 2,
                    "source": [ "obj-20", 0 ]
                }
            },
            {
                "patchline": {
                    "destination": [ "obj-35", 0 ],
                    "order": 1,
                    "source": [ "obj-20", 0 ]
                }
            },
            {
                "patchline": {
                    "destination": [ "obj-9", 1 ],
                    "order": 0,
                    "source": [ "obj-20", 0 ]
                }
            },
            {
                "patchline": {
                    "destination": [ "obj-13", 0 ],
                    "source": [ "obj-21", 0 ]
                }
            },
            {
                "patchline": {
                    "destination": [ "obj-16", 0 ],
                    "source": [ "obj-22", 0 ]
                }
            },
            {
                "patchline": {
                    "destination": [ "obj-18", 0 ],
                    "source": [ "obj-22", 1 ]
                }
            },
            {
                "patchline": {
                    "destination": [ "obj-34", 0 ],
                    "midpoints": [ 381.5, 256.5, 256.5, 256.5 ],
                    "source": [ "obj-23", 0 ]
                }
            },
            {
                "patchline": {
                    "destination": [ "obj-10", 0 ],
                    "source": [ "obj-24", 0 ]
                }
            },
            {
                "patchline": {
                    "destination": [ "obj-10", 0 ],
                    "source": [ "obj-25", 0 ]
                }
            },
            {
                "patchline": {
                    "destination": [ "obj-34", 0 ],
                    "source": [ "obj-26", 0 ]
                }
            },
            {
                "patchline": {
                    "destination": [ "obj-1", 0 ],
                    "midpoints": [ 315.5, 383.5, 256.5, 383.5 ],
                    "source": [ "obj-33", 0 ]
                }
            },
            {
                "patchline": {
                    "destination": [ "obj-1", 0 ],
                    "source": [ "obj-34", 0 ]
                }
            },
            {
                "patchline": {
                    "destination": [ "obj-33", 0 ],
                    "source": [ "obj-34", 2 ]
                }
            },
            {
                "patchline": {
                    "destination": [ "obj-49", 0 ],
                    "source": [ "obj-34", 1 ]
                }
            },
            {
                "patchline": {
                    "destination": [ "obj-38", 0 ],
                    "source": [ "obj-35", 0 ]
                }
            },
            {
                "patchline": {
                    "destination": [ "obj-17", 0 ],
                    "source": [ "obj-38", 0 ]
                }
            },
            {
                "patchline": {
                    "destination": [ "obj-19", 0 ],
                    "midpoints": [ 306.5, 704.5, 315.5, 704.5 ],
                    "source": [ "obj-38", 1 ]
                }
            },
            {
                "patchline": {
                    "destination": [ "obj-10", 0 ],
                    "source": [ "obj-39", 0 ]
                }
            },
            {
                "patchline": {
                    "destination": [ "obj-8", 0 ],
                    "midpoints": [ 295.5, 503.65155100000004, 259.0, 503.65155100000004, 259.0, 509.01983700000005, 256.5, 509.01983700000005 ],
                    "source": [ "obj-4", 2 ]
                }
            },
            {
                "patchline": {
                    "destination": [ "obj-8", 0 ],
                    "source": [ "obj-4", 0 ]
                }
            },
            {
                "patchline": {
                    "destination": [ "obj-39", 0 ],
                    "source": [ "obj-40", 0 ]
                }
            },
            {
                "patchline": {
                    "destination": [ "obj-1", 0 ],
                    "source": [ "obj-49", 0 ]
                }
            },
            {
                "patchline": {
                    "destination": [ "obj-6", 0 ],
                    "source": [ "obj-5", 0 ]
                }
            },
            {
                "patchline": {
                    "destination": [ "obj-34", 0 ],
                    "source": [ "obj-6", 0 ]
                }
            },
            {
                "patchline": {
                    "destination": [ "obj-14", 0 ],
                    "source": [ "obj-7", 0 ]
                }
            },
            {
                "patchline": {
                    "destination": [ "obj-20", 0 ],
                    "source": [ "obj-8", 0 ]
                }
            }
        ]
    }
}