{
    "patcher": {
        "fileversion": 1,
        "appversion": {
            "major": 9,
            "minor": 1,
            "revision": 1,
            "architecture": "x64",
            "modernui": 1
        },
        "classnamespace": "box",
        "rect": [ 34.0, 77.0, 1639.0, 802.0 ],
        "boxes": [
            {
                "box": {
                    "id": "obj-23",
                    "maxclass": "newobj",
                    "numinlets": 1,
                    "numoutlets": 2,
                    "outlettype": [ "int", "int" ],
                    "patching_rect": [ 177.25, 474.0, 29.5, 22.0 ],
                    "text": "t i i"
                }
            },
            {
                "box": {
                    "id": "obj-18",
                    "maxclass": "newobj",
                    "numinlets": 2,
                    "numoutlets": 1,
                    "outlettype": [ "" ],
                    "patching_rect": [ 176.0, 559.0, 32.0, 22.0 ],
                    "text": "gate"
                }
            },
            {
                "box": {
                    "id": "obj-17",
                    "maxclass": "newobj",
                    "numinlets": 1,
                    "numoutlets": 1,
                    "outlettype": [ "" ],
                    "patching_rect": [ 176.0, 507.0, 133.0, 22.0 ],
                    "text": "if $i1 < 64 then 1 else 0"
                }
            },
            {
                "box": {
                    "id": "obj-58",
                    "maxclass": "newobj",
                    "numinlets": 6,
                    "numoutlets": 1,
                    "outlettype": [ "" ],
                    "patching_rect": [ 233.0, 533.0, 90.0, 22.0 ],
                    "text": "scale 0 127 0 1"
                }
            },
            {
                "box": {
                    "id": "obj-54",
                    "maxclass": "newobj",
                    "numinlets": 2,
                    "numoutlets": 1,
                    "outlettype": [ "" ],
                    "patching_rect": [ 176.0, 604.0, 34.0, 22.0 ],
                    "text": "pack"
                }
            },
            {
                "box": {
                    "id": "obj-51",
                    "maxclass": "newobj",
                    "numinlets": 1,
                    "numoutlets": 0,
                    "patching_rect": [ 176.0, 636.0, 87.0, 22.0 ],
                    "text": "s apc-matrix-in"
                }
            },
            {
                "box": {
                    "id": "obj-50",
                    "maxclass": "newobj",
                    "numinlets": 1,
                    "numoutlets": 2,
                    "outlettype": [ "int", "int" ],
                    "patching_rect": [ 1060.0, 642.0, 59.0, 22.0 ],
                    "text": "unpack i i"
                }
            },
            {
                "box": {
                    "id": "obj-49",
                    "maxclass": "newobj",
                    "numinlets": 0,
                    "numoutlets": 1,
                    "outlettype": [ "" ],
                    "patching_rect": [ 1060.0, 608.0, 93.0, 22.0 ],
                    "text": "r apc-matrix-out"
                }
            },
            {
                "box": {
                    "id": "obj-47",
                    "maxclass": "newobj",
                    "numinlets": 2,
                    "numoutlets": 1,
                    "outlettype": [ "int" ],
                    "patching_rect": [ 1286.0, 684.0, 32.0, 22.0 ],
                    "text": "+ 82"
                }
            },
            {
                "box": {
                    "id": "obj-48",
                    "maxclass": "newobj",
                    "numinlets": 1,
                    "numoutlets": 2,
                    "outlettype": [ "int", "int" ],
                    "patching_rect": [ 1286.0, 642.0, 59.0, 22.0 ],
                    "text": "unpack i i"
                }
            },
            {
                "box": {
                    "id": "obj-45",
                    "maxclass": "newobj",
                    "numinlets": 1,
                    "numoutlets": 1,
                    "outlettype": [ "" ],
                    "patching_rect": [ 1408.0, 644.0, 116.0, 22.0 ],
                    "text": "loadmess APC MINI"
                }
            },
            {
                "box": {
                    "attr": "name",
                    "id": "obj-46",
                    "maxclass": "attrui",
                    "numinlets": 1,
                    "numoutlets": 1,
                    "outlettype": [ "" ],
                    "parameter_enable": 0,
                    "patching_rect": [ 1408.0, 684.0, 198.0, 22.0 ]
                }
            },
            {
                "box": {
                    "id": "obj-44",
                    "maxclass": "newobj",
                    "numinlets": 2,
                    "numoutlets": 1,
                    "outlettype": [ "int" ],
                    "patching_rect": [ 1160.0, 684.0, 32.0, 22.0 ],
                    "text": "+ 64"
                }
            },
            {
                "box": {
                    "id": "obj-43",
                    "maxclass": "newobj",
                    "numinlets": 1,
                    "numoutlets": 2,
                    "outlettype": [ "int", "int" ],
                    "patching_rect": [ 1160.0, 642.0, 59.0, 22.0 ],
                    "text": "unpack i i"
                }
            },
            {
                "box": {
                    "id": "obj-42",
                    "maxclass": "newobj",
                    "numinlets": 0,
                    "numoutlets": 1,
                    "outlettype": [ "" ],
                    "patching_rect": [ 1286.0, 608.0, 106.0, 22.0 ],
                    "text": "r apc-right-buttons"
                }
            },
            {
                "box": {
                    "id": "obj-41",
                    "maxclass": "newobj",
                    "numinlets": 0,
                    "numoutlets": 1,
                    "outlettype": [ "" ],
                    "patching_rect": [ 1160.0, 608.0, 111.0, 22.0 ],
                    "text": "r apc-lower-buttons"
                }
            },
            {
                "box": {
                    "id": "obj-30",
                    "maxclass": "newobj",
                    "numinlets": 1,
                    "numoutlets": 1,
                    "outlettype": [ "bang" ],
                    "patching_rect": [ 1360.0, 409.0, 58.0, 22.0 ],
                    "text": "loadbang"
                }
            },
            {
                "box": {
                    "id": "obj-28",
                    "maxclass": "newobj",
                    "numinlets": 2,
                    "numoutlets": 1,
                    "outlettype": [ "" ],
                    "patching_rect": [ 1302.0, 493.0, 77.0, 22.0 ],
                    "text": "array.indexof"
                }
            },
            {
                "box": {
                    "id": "obj-7",
                    "maxclass": "newobj",
                    "numinlets": 3,
                    "numoutlets": 0,
                    "patching_rect": [ 1160.0, 748.0, 49.0, 22.0 ],
                    "text": "noteout"
                }
            },
            {
                "box": {
                    "id": "obj-238",
                    "maxclass": "newobj",
                    "numinlets": 2,
                    "numoutlets": 1,
                    "outlettype": [ "int" ],
                    "patching_rect": [ 1200.0, 714.0, 37.0, 22.0 ],
                    "text": "* 127"
                }
            },
            {
                "box": {
                    "id": "obj-6",
                    "maxclass": "newobj",
                    "numinlets": 2,
                    "numoutlets": 3,
                    "outlettype": [ "", "", "" ],
                    "patching_rect": [ 1360.0, 447.0, 261.0, 22.0 ],
                    "saved_object_attributes": {
                        "parameter_enable": 0,
                        "parameter_mappable": 0
                    },
                    "text": "array clip-stop solo arm mute select A B stop-all"
                }
            },
            {
                "box": {
                    "id": "obj-2",
                    "maxclass": "newobj",
                    "numinlets": 2,
                    "numoutlets": 1,
                    "outlettype": [ "int" ],
                    "patching_rect": [ 670.0, 277.0, 29.5, 22.0 ],
                    "text": "- 47"
                }
            },
            {
                "box": {
                    "id": "obj-38",
                    "maxclass": "newobj",
                    "numinlets": 1,
                    "numoutlets": 1,
                    "outlettype": [ "" ],
                    "patching_rect": [ 568.0, 51.0, 116.0, 22.0 ],
                    "text": "loadmess APC MINI"
                }
            },
            {
                "box": {
                    "id": "obj-36",
                    "maxclass": "newobj",
                    "numinlets": 1,
                    "numoutlets": 2,
                    "outlettype": [ "int", "int" ],
                    "patching_rect": [ 47.0, 217.0, 29.5, 22.0 ],
                    "text": "t i i"
                }
            },
            {
                "box": {
                    "id": "obj-33",
                    "maxclass": "newobj",
                    "numinlets": 2,
                    "numoutlets": 1,
                    "outlettype": [ "" ],
                    "patching_rect": [ 47.0, 279.0, 32.0, 22.0 ],
                    "text": "gate"
                }
            },
            {
                "box": {
                    "id": "obj-35",
                    "maxclass": "newobj",
                    "numinlets": 1,
                    "numoutlets": 1,
                    "outlettype": [ "" ],
                    "patching_rect": [ 47.0, 248.0, 133.0, 22.0 ],
                    "text": "if $i1 < 72 then 1 else 0"
                }
            },
            {
                "box": {
                    "id": "obj-29",
                    "maxclass": "message",
                    "numinlets": 2,
                    "numoutlets": 1,
                    "outlettype": [ "" ],
                    "patching_rect": [ 328.0, 277.0, 54.0, 22.0 ],
                    "text": "apc-shift"
                }
            },
            {
                "box": {
                    "id": "obj-25",
                    "maxclass": "newobj",
                    "numinlets": 2,
                    "numoutlets": 2,
                    "outlettype": [ "bang", "" ],
                    "patching_rect": [ 328.0, 241.0, 41.0, 22.0 ],
                    "text": "sel 98"
                }
            },
            {
                "box": {
                    "id": "obj-22",
                    "maxclass": "newobj",
                    "numinlets": 2,
                    "numoutlets": 2,
                    "outlettype": [ "", "" ],
                    "patching_rect": [ 173.0, 345.0, 283.0, 22.0 ],
                    "text": "zl.lookup up down left right volume pan send device"
                }
            },
            {
                "box": {
                    "id": "obj-21",
                    "maxclass": "newobj",
                    "numinlets": 1,
                    "numoutlets": 2,
                    "outlettype": [ "int", "int" ],
                    "patching_rect": [ 47.0, 317.0, 29.5, 22.0 ],
                    "text": "t i i"
                }
            },
            {
                "box": {
                    "id": "obj-20",
                    "maxclass": "newobj",
                    "numinlets": 2,
                    "numoutlets": 1,
                    "outlettype": [ "int" ],
                    "patching_rect": [ 85.0, 381.0, 29.5, 22.0 ],
                    "text": "+ 1"
                }
            },
            {
                "box": {
                    "id": "obj-19",
                    "maxclass": "newobj",
                    "numinlets": 2,
                    "numoutlets": 1,
                    "outlettype": [ "int" ],
                    "patching_rect": [ 47.0, 381.0, 29.5, 22.0 ],
                    "text": "+ 1"
                }
            },
            {
                "box": {
                    "id": "obj-16",
                    "maxclass": "newobj",
                    "numinlets": 2,
                    "numoutlets": 1,
                    "outlettype": [ "int" ],
                    "patching_rect": [ 47.0, 355.0, 29.5, 22.0 ],
                    "text": "/ 8"
                }
            },
            {
                "box": {
                    "id": "obj-13",
                    "maxclass": "newobj",
                    "numinlets": 2,
                    "numoutlets": 1,
                    "outlettype": [ "int" ],
                    "patching_rect": [ 85.0, 355.0, 29.5, 22.0 ],
                    "text": "% 8"
                }
            },
            {
                "box": {
                    "id": "obj-4",
                    "maxclass": "newobj",
                    "numinlets": 2,
                    "numoutlets": 2,
                    "outlettype": [ "", "" ],
                    "patching_rect": [ 569.0, 365.0, 51.0, 22.0 ],
                    "text": "buddy 2"
                }
            },
            {
                "box": {
                    "id": "obj-5",
                    "linecount": 7,
                    "maxclass": "comment",
                    "numinlets": 1,
                    "numoutlets": 0,
                    "patching_rect": [ 45.0, 690.0, 673.0, 103.0 ],
                    "text": "play stop record up down right left shift tap nudge+ nudge-  track device left right toggle solo arm pan send-a send-b send-c\napc-fader-i\napc-track-i\napc-knob-channel/master-i\ngrid: apc-row-column\n\nEagle Wu 2024"
                }
            },
            {
                "box": {
                    "id": "obj-149",
                    "maxclass": "newobj",
                    "numinlets": 6,
                    "numoutlets": 1,
                    "outlettype": [ "" ],
                    "patching_rect": [ 822.0, 358.0, 97.0, 22.0 ],
                    "text": "scale 0 127 0. 1."
                }
            },
            {
                "box": {
                    "id": "obj-150",
                    "maxclass": "newobj",
                    "numinlets": 2,
                    "numoutlets": 1,
                    "outlettype": [ "" ],
                    "patching_rect": [ 822.0, 291.0, 32.0, 22.0 ],
                    "text": "gate"
                }
            },
            {
                "box": {
                    "id": "obj-151",
                    "maxclass": "newobj",
                    "numinlets": 1,
                    "numoutlets": 1,
                    "outlettype": [ "" ],
                    "patching_rect": [ 822.0, 251.0, 140.0, 22.0 ],
                    "text": "if $i1 == 56 then 1 else 0"
                }
            },
            {
                "box": {
                    "id": "obj-148",
                    "maxclass": "newobj",
                    "numinlets": 1,
                    "numoutlets": 0,
                    "patching_rect": [ 822.0, 406.0, 109.0, 22.0 ],
                    "text": "s apc-fader-master"
                }
            },
            {
                "box": {
                    "id": "obj-147",
                    "maxclass": "newobj",
                    "numinlets": 6,
                    "numoutlets": 1,
                    "outlettype": [ "" ],
                    "patching_rect": [ 569.0, 334.0, 97.0, 22.0 ],
                    "text": "scale 0 127 0. 1."
                }
            },
            {
                "box": {
                    "id": "obj-144",
                    "maxclass": "newobj",
                    "numinlets": 1,
                    "numoutlets": 0,
                    "patching_rect": [ 569.0, 405.0, 49.0, 22.0 ],
                    "text": "forward"
                }
            },
            {
                "box": {
                    "id": "obj-143",
                    "maxclass": "newobj",
                    "numinlets": 1,
                    "numoutlets": 1,
                    "outlettype": [ "" ],
                    "patching_rect": [ 670.0, 334.0, 82.0, 22.0 ],
                    "text": "prepend send"
                }
            },
            {
                "box": {
                    "id": "obj-142",
                    "maxclass": "newobj",
                    "numinlets": 2,
                    "numoutlets": 1,
                    "outlettype": [ "" ],
                    "patching_rect": [ 569.0, 290.0, 32.0, 22.0 ],
                    "text": "gate"
                }
            },
            {
                "box": {
                    "id": "obj-141",
                    "maxclass": "newobj",
                    "numinlets": 1,
                    "numoutlets": 1,
                    "outlettype": [ "" ],
                    "patching_rect": [ 569.0, 251.0, 191.0, 22.0 ],
                    "text": "if $i1 > 47 & $i1 < 56 then 1 else 0"
                }
            },
            {
                "box": {
                    "id": "obj-138",
                    "maxclass": "newobj",
                    "numinlets": 1,
                    "numoutlets": 1,
                    "outlettype": [ "" ],
                    "patching_rect": [ 670.0, 307.0, 113.0, 22.0 ],
                    "text": "sprintf apc-fader-%i"
                }
            },
            {
                "box": {
                    "id": "obj-118",
                    "maxclass": "newobj",
                    "numinlets": 1,
                    "numoutlets": 3,
                    "outlettype": [ "int", "int", "int" ],
                    "patching_rect": [ 568.0, 135.0, 53.0, 22.0 ],
                    "text": "ctlin apc"
                }
            },
            {
                "box": {
                    "id": "obj-107",
                    "maxclass": "newobj",
                    "numinlets": 2,
                    "numoutlets": 1,
                    "outlettype": [ "int" ],
                    "patching_rect": [ 274.0, 281.0, 29.5, 22.0 ],
                    "text": "- 82"
                }
            },
            {
                "box": {
                    "id": "obj-108",
                    "maxclass": "newobj",
                    "numinlets": 2,
                    "numoutlets": 2,
                    "outlettype": [ "", "" ],
                    "patching_rect": [ 274.0, 317.0, 281.0, 22.0 ],
                    "text": "zl.lookup clip-stop solo arm mute select A B stop-all"
                }
            },
            {
                "box": {
                    "id": "obj-97",
                    "maxclass": "newobj",
                    "numinlets": 1,
                    "numoutlets": 1,
                    "outlettype": [ "" ],
                    "patching_rect": [ 173.0, 381.0, 85.0, 22.0 ],
                    "text": "sprintf apc-%s"
                }
            },
            {
                "box": {
                    "id": "obj-92",
                    "maxclass": "newobj",
                    "numinlets": 2,
                    "numoutlets": 1,
                    "outlettype": [ "int" ],
                    "patching_rect": [ 173.0, 312.0, 29.5, 22.0 ],
                    "text": "- 64"
                }
            },
            {
                "box": {
                    "id": "obj-71",
                    "maxclass": "newobj",
                    "numinlets": 1,
                    "numoutlets": 1,
                    "outlettype": [ "" ],
                    "patching_rect": [ 274.0, 381.0, 85.0, 22.0 ],
                    "text": "sprintf apc-%s"
                }
            },
            {
                "box": {
                    "id": "obj-61",
                    "maxclass": "newobj",
                    "numinlets": 1,
                    "numoutlets": 2,
                    "outlettype": [ "bang", "" ],
                    "patching_rect": [ 47.0, 469.0, 31.0, 22.0 ],
                    "text": "t b s"
                }
            },
            {
                "box": {
                    "id": "obj-60",
                    "maxclass": "newobj",
                    "numinlets": 2,
                    "numoutlets": 1,
                    "outlettype": [ "int" ],
                    "patching_rect": [ 47.0, 507.0, 29.5, 22.0 ],
                    "text": "i"
                }
            },
            {
                "box": {
                    "id": "obj-57",
                    "maxclass": "newobj",
                    "numinlets": 6,
                    "numoutlets": 1,
                    "outlettype": [ "" ],
                    "patching_rect": [ 47.0, 537.0, 90.0, 22.0 ],
                    "text": "scale 0 127 0 1"
                }
            },
            {
                "box": {
                    "id": "obj-56",
                    "maxclass": "newobj",
                    "numinlets": 2,
                    "numoutlets": 2,
                    "outlettype": [ "", "" ],
                    "patching_rect": [ 47.0, 572.0, 51.0, 22.0 ],
                    "text": "buddy 2"
                }
            },
            {
                "box": {
                    "id": "obj-34",
                    "maxclass": "newobj",
                    "numinlets": 1,
                    "numoutlets": 0,
                    "patching_rect": [ 47.0, 608.0, 49.0, 22.0 ],
                    "text": "forward"
                }
            },
            {
                "box": {
                    "id": "obj-31",
                    "maxclass": "newobj",
                    "numinlets": 1,
                    "numoutlets": 1,
                    "outlettype": [ "" ],
                    "patching_rect": [ 79.0, 507.0, 82.0, 22.0 ],
                    "text": "prepend send"
                }
            },
            {
                "box": {
                    "id": "obj-27",
                    "maxclass": "newobj",
                    "numinlets": 2,
                    "numoutlets": 1,
                    "outlettype": [ "" ],
                    "patching_rect": [ 47.0, 414.0, 99.0, 22.0 ],
                    "text": "sprintf apc-%i-%i"
                }
            },
            {
                "box": {
                    "id": "obj-1",
                    "maxclass": "newobj",
                    "numinlets": 1,
                    "numoutlets": 3,
                    "outlettype": [ "int", "int", "int" ],
                    "patching_rect": [ 47.0, 135.0, 64.0, 22.0 ],
                    "text": "notein apc"
                }
            },
            {
                "box": {
                    "attr": "name",
                    "id": "obj-37",
                    "maxclass": "attrui",
                    "numinlets": 1,
                    "numoutlets": 1,
                    "outlettype": [ "" ],
                    "parameter_enable": 0,
                    "patching_rect": [ 568.0, 91.0, 198.0, 22.0 ]
                }
            }
        ],
        "lines": [
            {
                "patchline": {
                    "destination": [ "obj-107", 0 ],
                    "midpoints": [ 56.5, 213.5, 283.5, 213.5 ],
                    "order": 1,
                    "source": [ "obj-1", 0 ]
                }
            },
            {
                "patchline": {
                    "destination": [ "obj-25", 0 ],
                    "midpoints": [ 56.5, 207.0, 337.5, 207.0 ],
                    "order": 0,
                    "source": [ "obj-1", 0 ]
                }
            },
            {
                "patchline": {
                    "destination": [ "obj-36", 0 ],
                    "order": 3,
                    "source": [ "obj-1", 0 ]
                }
            },
            {
                "patchline": {
                    "destination": [ "obj-58", 0 ],
                    "midpoints": [ 79.0, 347.0, 242.5, 347.0 ],
                    "order": 0,
                    "source": [ "obj-1", 1 ]
                }
            },
            {
                "patchline": {
                    "destination": [ "obj-60", 1 ],
                    "midpoints": [ 79.0, 497.635, 67.0, 497.635 ],
                    "order": 1,
                    "source": [ "obj-1", 1 ]
                }
            },
            {
                "patchline": {
                    "destination": [ "obj-92", 0 ],
                    "midpoints": [ 56.5, 206.9852923154831, 182.5, 206.9852923154831 ],
                    "order": 2,
                    "source": [ "obj-1", 0 ]
                }
            },
            {
                "patchline": {
                    "destination": [ "obj-108", 0 ],
                    "source": [ "obj-107", 0 ]
                }
            },
            {
                "patchline": {
                    "destination": [ "obj-71", 0 ],
                    "source": [ "obj-108", 0 ]
                }
            },
            {
                "patchline": {
                    "destination": [ "obj-141", 0 ],
                    "midpoints": [ 594.5, 229.0, 578.5, 229.0 ],
                    "order": 2,
                    "source": [ "obj-118", 1 ]
                }
            },
            {
                "patchline": {
                    "destination": [ "obj-142", 1 ],
                    "midpoints": [ 577.5, 248.5, 591.5, 248.5 ],
                    "order": 1,
                    "source": [ "obj-118", 0 ]
                }
            },
            {
                "patchline": {
                    "destination": [ "obj-150", 1 ],
                    "midpoints": [ 577.5, 230.5, 844.5, 230.5 ],
                    "order": 0,
                    "source": [ "obj-118", 0 ]
                }
            },
            {
                "patchline": {
                    "destination": [ "obj-151", 0 ],
                    "midpoints": [ 594.5, 228.5, 831.5, 228.5 ],
                    "order": 0,
                    "source": [ "obj-118", 1 ]
                }
            },
            {
                "patchline": {
                    "destination": [ "obj-2", 0 ],
                    "midpoints": [ 594.5, 217.0, 679.5, 217.0 ],
                    "order": 1,
                    "source": [ "obj-118", 1 ]
                }
            },
            {
                "patchline": {
                    "destination": [ "obj-20", 0 ],
                    "source": [ "obj-13", 0 ]
                }
            },
            {
                "patchline": {
                    "destination": [ "obj-143", 0 ],
                    "source": [ "obj-138", 0 ]
                }
            },
            {
                "patchline": {
                    "destination": [ "obj-142", 0 ],
                    "source": [ "obj-141", 0 ]
                }
            },
            {
                "patchline": {
                    "destination": [ "obj-147", 0 ],
                    "source": [ "obj-142", 0 ]
                }
            },
            {
                "patchline": {
                    "destination": [ "obj-4", 1 ],
                    "midpoints": [ 679.5, 360.0, 610.5, 360.0 ],
                    "source": [ "obj-143", 0 ]
                }
            },
            {
                "patchline": {
                    "destination": [ "obj-4", 0 ],
                    "source": [ "obj-147", 0 ]
                }
            },
            {
                "patchline": {
                    "destination": [ "obj-148", 0 ],
                    "source": [ "obj-149", 0 ]
                }
            },
            {
                "patchline": {
                    "destination": [ "obj-149", 0 ],
                    "source": [ "obj-150", 0 ]
                }
            },
            {
                "patchline": {
                    "destination": [ "obj-150", 0 ],
                    "source": [ "obj-151", 0 ]
                }
            },
            {
                "patchline": {
                    "destination": [ "obj-19", 0 ],
                    "source": [ "obj-16", 0 ]
                }
            },
            {
                "patchline": {
                    "destination": [ "obj-18", 0 ],
                    "source": [ "obj-17", 0 ]
                }
            },
            {
                "patchline": {
                    "destination": [ "obj-54", 0 ],
                    "source": [ "obj-18", 0 ]
                }
            },
            {
                "patchline": {
                    "destination": [ "obj-27", 0 ],
                    "source": [ "obj-19", 0 ]
                }
            },
            {
                "patchline": {
                    "destination": [ "obj-138", 0 ],
                    "midpoints": [ 679.5, 303.0, 679.5, 303.0 ],
                    "source": [ "obj-2", 0 ]
                }
            },
            {
                "patchline": {
                    "destination": [ "obj-27", 1 ],
                    "source": [ "obj-20", 0 ]
                }
            },
            {
                "patchline": {
                    "destination": [ "obj-13", 0 ],
                    "midpoints": [ 67.0, 342.0, 94.5, 342.0 ],
                    "source": [ "obj-21", 1 ]
                }
            },
            {
                "patchline": {
                    "destination": [ "obj-16", 0 ],
                    "source": [ "obj-21", 0 ]
                }
            },
            {
                "patchline": {
                    "destination": [ "obj-97", 0 ],
                    "source": [ "obj-22", 0 ]
                }
            },
            {
                "patchline": {
                    "destination": [ "obj-17", 0 ],
                    "source": [ "obj-23", 1 ]
                }
            },
            {
                "patchline": {
                    "destination": [ "obj-18", 1 ],
                    "source": [ "obj-23", 0 ]
                }
            },
            {
                "patchline": {
                    "destination": [ "obj-7", 1 ],
                    "midpoints": [ 1209.5, 742.0, 1184.5, 742.0 ],
                    "source": [ "obj-238", 0 ]
                }
            },
            {
                "patchline": {
                    "destination": [ "obj-29", 0 ],
                    "source": [ "obj-25", 0 ]
                }
            },
            {
                "patchline": {
                    "destination": [ "obj-61", 0 ],
                    "midpoints": [ 56.5, 465.0, 56.5, 465.0 ],
                    "source": [ "obj-27", 0 ]
                }
            },
            {
                "patchline": {
                    "destination": [ "obj-61", 0 ],
                    "midpoints": [ 337.5, 455.0, 56.5, 455.0 ],
                    "source": [ "obj-29", 0 ]
                }
            },
            {
                "patchline": {
                    "destination": [ "obj-6", 0 ],
                    "source": [ "obj-30", 0 ]
                }
            },
            {
                "patchline": {
                    "destination": [ "obj-56", 1 ],
                    "midpoints": [ 88.5, 540.8035711348057, 88.5, 540.8035711348057 ],
                    "source": [ "obj-31", 0 ]
                }
            },
            {
                "patchline": {
                    "destination": [ "obj-21", 0 ],
                    "order": 1,
                    "source": [ "obj-33", 0 ]
                }
            },
            {
                "patchline": {
                    "destination": [ "obj-23", 0 ],
                    "midpoints": [ 56.5, 313.5, 186.75, 313.5 ],
                    "order": 0,
                    "source": [ "obj-33", 0 ]
                }
            },
            {
                "patchline": {
                    "destination": [ "obj-33", 0 ],
                    "source": [ "obj-35", 0 ]
                }
            },
            {
                "patchline": {
                    "destination": [ "obj-33", 1 ],
                    "source": [ "obj-36", 0 ]
                }
            },
            {
                "patchline": {
                    "destination": [ "obj-35", 0 ],
                    "source": [ "obj-36", 1 ]
                }
            },
            {
                "patchline": {
                    "destination": [ "obj-1", 0 ],
                    "midpoints": [ 577.5, 124.0, 56.5, 124.0 ],
                    "order": 1,
                    "source": [ "obj-37", 0 ]
                }
            },
            {
                "patchline": {
                    "destination": [ "obj-118", 0 ],
                    "order": 0,
                    "source": [ "obj-37", 0 ]
                }
            },
            {
                "patchline": {
                    "destination": [ "obj-37", 0 ],
                    "source": [ "obj-38", 0 ]
                }
            },
            {
                "patchline": {
                    "destination": [ "obj-144", 0 ],
                    "midpoints": [ 610.5, 395.5, 578.5, 395.5 ],
                    "source": [ "obj-4", 1 ]
                }
            },
            {
                "patchline": {
                    "destination": [ "obj-144", 0 ],
                    "source": [ "obj-4", 0 ]
                }
            },
            {
                "patchline": {
                    "destination": [ "obj-43", 0 ],
                    "source": [ "obj-41", 0 ]
                }
            },
            {
                "patchline": {
                    "destination": [ "obj-48", 0 ],
                    "source": [ "obj-42", 0 ]
                }
            },
            {
                "patchline": {
                    "destination": [ "obj-238", 0 ],
                    "source": [ "obj-43", 1 ]
                }
            },
            {
                "patchline": {
                    "destination": [ "obj-44", 0 ],
                    "source": [ "obj-43", 0 ]
                }
            },
            {
                "patchline": {
                    "destination": [ "obj-7", 0 ],
                    "source": [ "obj-44", 0 ]
                }
            },
            {
                "patchline": {
                    "destination": [ "obj-46", 0 ],
                    "source": [ "obj-45", 0 ]
                }
            },
            {
                "patchline": {
                    "destination": [ "obj-7", 0 ],
                    "midpoints": [ 1417.5, 727.0, 1169.5, 727.0 ],
                    "source": [ "obj-46", 0 ]
                }
            },
            {
                "patchline": {
                    "destination": [ "obj-7", 0 ],
                    "midpoints": [ 1295.5, 727.0, 1169.5, 727.0 ],
                    "source": [ "obj-47", 0 ]
                }
            },
            {
                "patchline": {
                    "destination": [ "obj-238", 0 ],
                    "midpoints": [ 1335.5, 689.0, 1209.5, 689.0 ],
                    "source": [ "obj-48", 1 ]
                }
            },
            {
                "patchline": {
                    "destination": [ "obj-47", 0 ],
                    "source": [ "obj-48", 0 ]
                }
            },
            {
                "patchline": {
                    "destination": [ "obj-50", 0 ],
                    "source": [ "obj-49", 0 ]
                }
            },
            {
                "patchline": {
                    "destination": [ "obj-238", 0 ],
                    "midpoints": [ 1109.5, 689.0, 1209.5, 689.0 ],
                    "source": [ "obj-50", 1 ]
                }
            },
            {
                "patchline": {
                    "destination": [ "obj-7", 0 ],
                    "midpoints": [ 1069.5, 706.0, 1169.5, 706.0 ],
                    "source": [ "obj-50", 0 ]
                }
            },
            {
                "patchline": {
                    "destination": [ "obj-51", 0 ],
                    "source": [ "obj-54", 0 ]
                }
            },
            {
                "patchline": {
                    "destination": [ "obj-34", 0 ],
                    "midpoints": [ 88.5, 595.3035711348057, 56.5, 595.3035711348057 ],
                    "source": [ "obj-56", 1 ]
                }
            },
            {
                "patchline": {
                    "destination": [ "obj-34", 0 ],
                    "source": [ "obj-56", 0 ]
                }
            },
            {
                "patchline": {
                    "destination": [ "obj-56", 0 ],
                    "source": [ "obj-57", 0 ]
                }
            },
            {
                "patchline": {
                    "destination": [ "obj-54", 1 ],
                    "source": [ "obj-58", 0 ]
                }
            },
            {
                "patchline": {
                    "destination": [ "obj-28", 1 ],
                    "source": [ "obj-6", 0 ]
                }
            },
            {
                "patchline": {
                    "destination": [ "obj-57", 0 ],
                    "source": [ "obj-60", 0 ]
                }
            },
            {
                "patchline": {
                    "destination": [ "obj-31", 0 ],
                    "midpoints": [ 68.5, 496.41071221232414, 88.5, 496.41071221232414 ],
                    "source": [ "obj-61", 1 ]
                }
            },
            {
                "patchline": {
                    "destination": [ "obj-60", 0 ],
                    "source": [ "obj-61", 0 ]
                }
            },
            {
                "patchline": {
                    "destination": [ "obj-61", 0 ],
                    "midpoints": [ 283.5, 448.7499967813492, 56.5, 448.7499967813492 ],
                    "source": [ "obj-71", 0 ]
                }
            },
            {
                "patchline": {
                    "destination": [ "obj-22", 0 ],
                    "source": [ "obj-92", 0 ]
                }
            },
            {
                "patchline": {
                    "destination": [ "obj-61", 0 ],
                    "midpoints": [ 182.5, 460.7499967813492, 56.5, 460.7499967813492 ],
                    "source": [ "obj-97", 0 ]
                }
            }
        ]
    }
}